<svg width="142" height="44" viewBox="0 0 142 44" fill="none" xmlns="http://www.w3.org/2000/svg">
<g clip-path="url(#clip0_627_988)">
<path d="M87.5645 27.5158L84.6691 24.5954C83.6445 23.5635 82.2566 22.9826 80.8086 22.9795H76.7068C75.2587 22.9817 73.8704 23.5628 72.8463 24.5954L69.9509 27.5158C68.9269 28.5486 68.3507 29.9489 68.3488 31.4096V35.5487C68.3507 37.0094 68.9269 38.4096 69.9509 39.4425L72.8463 42.3629C73.8704 43.3955 75.2587 43.9766 76.7068 43.9788H80.8086C82.2566 43.9757 83.6445 43.3948 84.6691 42.3629L87.5645 39.4425C88.5891 38.4098 89.1659 37.0096 89.1686 35.5487V31.4174C89.1679 29.9538 88.5909 28.5504 87.5645 27.5158V27.5158ZM85.0649 38.7572C85.0649 39.05 84.9495 39.3307 84.7443 39.5378C84.539 39.7448 84.2607 39.8611 83.9704 39.8611H73.5199C73.2297 39.8611 72.9513 39.7448 72.746 39.5378C72.5408 39.3307 72.4255 39.05 72.4255 38.7572V28.2167C72.4255 27.9239 72.5408 27.6431 72.746 27.4361C72.9513 27.2291 73.2297 27.1128 73.5199 27.1128H83.9704C84.2607 27.1128 84.539 27.2291 84.7443 27.4361C84.9495 27.6431 85.0649 27.9239 85.0649 28.2167V38.7572Z" fill="#1D1D1B"/>
<path d="M87.5645 4.56167L84.6691 1.64132C83.6451 0.608501 82.2568 0.0273924 80.8086 0.0253906H76.7068C75.2584 0.026539 73.8698 0.607778 72.8463 1.64132L69.9509 4.56167C68.9262 5.59406 68.3499 6.99464 68.3488 8.45548V10.5328V21.0266H72.4525V10.5328V5.25672C72.4525 5.11175 72.4808 4.96821 72.5358 4.83428C72.5908 4.70035 72.6714 4.57865 72.773 4.47614C72.8747 4.37364 72.9953 4.29233 73.1281 4.23685C73.2609 4.18137 73.4032 4.15282 73.5469 4.15282H83.9974C84.1411 4.15282 84.2834 4.18137 84.4162 4.23685C84.549 4.29233 84.6697 4.37364 84.7713 4.47614C84.8729 4.57865 84.9536 4.70035 85.0086 4.83428C85.0636 4.96821 85.0919 5.11175 85.0919 5.25672V10.5328H89.1956V8.46327C89.1922 7.73659 89.0463 7.01778 88.7664 6.34819C88.4864 5.6786 88.078 5.07144 87.5645 4.56167V4.56167Z" fill="#1D1D1B"/>
<path d="M43.6143 10.5133V0.0195123H39.5106V10.5133V15.7836C39.5106 16.0764 39.3953 16.3571 39.19 16.5642C38.9848 16.7712 38.7064 16.8875 38.4161 16.8875H27.9657C27.6754 16.8875 27.397 16.7712 27.1918 16.5642C26.9865 16.3571 26.8712 16.0764 26.8712 15.7836V0.0136719H22.7675V10.5133V12.5829C22.7694 14.0435 23.3456 15.4438 24.3696 16.4767L27.265 19.397C28.2891 20.4297 29.6774 21.0107 31.1255 21.013H35.2273C36.6786 21.0125 38.0705 20.4313 39.0975 19.397L41.9929 16.4767C43.0174 15.444 43.5942 14.0438 43.5969 12.5829V10.5133H43.6143Z" fill="#1D1D1B"/>
<path d="M22.7675 33.4869V43.9808H26.8712V33.4869V28.2167C26.8712 27.9239 26.9865 27.6431 27.1918 27.4361C27.397 27.2291 27.6754 27.1128 27.9657 27.1128H38.4161C38.7064 27.1128 38.9848 27.2291 39.19 27.4361C39.3953 27.6431 39.5106 27.9239 39.5106 28.2167V43.9866H43.6143V33.4869V31.4174C43.6116 29.9565 43.0348 28.5563 42.0103 27.5236L39.1149 24.6032C38.0879 23.5689 36.696 22.9878 35.2447 22.9873H31.139C29.6909 22.9895 28.3027 23.5706 27.2785 24.6032L24.3831 27.5236C23.3591 28.5565 22.7829 29.9567 22.781 31.4174V33.4869H22.7675Z" fill="#1D1D1B"/>
<path d="M91.0989 33.4869V43.9808H95.2026V33.4869V28.2167C95.2026 28.0717 95.2309 27.9282 95.2859 27.7942C95.3409 27.6603 95.4215 27.5386 95.5232 27.4361C95.6248 27.3336 95.7455 27.2523 95.8782 27.1968C96.011 27.1413 96.1533 27.1128 96.2971 27.1128H106.748C106.891 27.1128 107.033 27.1414 107.166 27.1969C107.299 27.2523 107.419 27.3337 107.521 27.4362C107.622 27.5388 107.703 27.6605 107.757 27.7944C107.812 27.9283 107.84 28.0718 107.84 28.2167V43.9866H111.944V33.4869V31.4174C111.942 29.9567 111.366 28.5565 110.342 27.5236L107.446 24.6032C106.422 23.5706 105.034 22.9895 103.586 22.9873H99.4839C98.0358 22.9895 96.6476 23.5706 95.6234 24.6032L92.728 27.5236C91.704 28.5565 91.1279 29.9567 91.1259 31.4174V33.4869H91.0989Z" fill="#1D1D1B"/>
<path d="M111.944 4.13918V2.06962V0.0195312H107.84V7.33989C107.84 7.48476 107.812 7.62826 107.757 7.76218C107.703 7.8961 107.622 8.0178 107.521 8.12033C107.419 8.22287 107.299 8.30421 107.166 8.35971C107.033 8.41521 106.891 8.44378 106.748 8.44378H96.2971C96.0068 8.44378 95.7284 8.32747 95.5232 8.12045C95.3179 7.91343 95.2026 7.63266 95.2026 7.33989V2.06962V0.0195312H91.0989V4.13918C91.1009 5.59984 91.677 7.00011 92.701 8.03298L95.5964 10.9533C96.6205 11.986 98.0088 12.567 99.4569 12.5693H103.559C105.007 12.567 106.395 11.986 107.419 10.9533L107.819 10.5503V15.77C107.819 16.0627 107.704 16.3435 107.498 16.5505C107.293 16.7576 107.015 16.8739 106.724 16.8739H92.6798V21.0266H103.551C104.999 21.0244 106.387 20.4433 107.412 19.4107L110.307 16.4903C111.331 15.4575 111.907 14.0572 111.909 12.5965V10.5133V4.13918H111.944Z" fill="#1D1D1B"/>
<path d="M66.3916 27.0933V25.0237V22.9736H62.2878V30.2959C62.2878 30.4408 62.2595 30.5843 62.2045 30.7181C62.1494 30.8519 62.0688 30.9735 61.9671 31.0758C61.8655 31.1782 61.7448 31.2593 61.612 31.3146C61.4793 31.3698 61.337 31.3981 61.1933 31.3979H50.7429C50.4526 31.3979 50.1742 31.2816 49.969 31.0746C49.7637 30.8675 49.6484 30.5868 49.6484 30.294V25.0237V22.9736H45.5447V27.0933C45.5458 28.5541 46.1221 29.9547 47.1468 30.9871L50.0422 33.9074C51.0658 34.941 52.4544 35.5222 53.9027 35.5234H58.0045C59.4527 35.5214 60.841 34.9402 61.8651 33.9074L62.2646 33.5044V38.7435C62.2646 38.8885 62.2363 39.0321 62.1813 39.166C62.1263 39.2999 62.0457 39.4216 61.9441 39.5241C61.8424 39.6266 61.7218 39.7079 61.589 39.7634C61.4562 39.8189 61.3139 39.8474 61.1702 39.8474H47.1468V43.9807H58.0181C59.4662 43.9787 60.8545 43.3976 61.8786 42.3648L64.774 39.4444C65.7992 38.4122 66.3762 37.0117 66.378 35.5506V33.4674V27.0933H66.3916Z" fill="#1D1D1B"/>
<path d="M135.839 23.6142H134.721V22.9736H137.672V23.6142H136.557V27.1186H135.839V23.6142ZM138.215 22.9736H139.213L139.836 24.8835L140.118 25.8083L140.247 25.345L140.39 24.8835L141 22.9736H142V27.1127H141.307V24.6811C141.307 24.4864 141.319 24.2197 141.33 23.9023H141.319C141.247 24.1632 141.178 24.4007 141.095 24.6266L140.46 26.6182H139.755L139.097 24.5779L138.885 23.9023H138.873C138.885 24.2235 138.896 24.4591 138.896 24.6382V27.1166H138.215V22.9736Z" fill="#1D1D1B"/>
<path d="M20.8469 31.4174C20.8447 29.9568 20.2686 28.5566 19.2448 27.5236L16.3494 24.6032C15.3252 23.5706 13.937 22.9895 12.4888 22.9873H1.60405V27.1264H15.6487C15.9389 27.1264 16.2173 27.2427 16.4226 27.4497C16.6278 27.6568 16.7431 27.9375 16.7431 28.2303V31.431H0.0366755V31.4524H0V35.5701C0.0027079 37.031 0.579531 38.4313 1.60405 39.4639L4.49945 42.3843C5.52646 43.4186 6.91832 43.9997 8.36963 44.0002H12.4714C13.9196 43.998 15.3078 43.4169 16.332 42.3843L16.7315 41.9813V43.9808H20.8469V35.5565V31.4174ZM15.6487 39.8611H5.19821C4.90794 39.8611 4.62956 39.7448 4.42431 39.5378C4.21906 39.3308 4.10375 39.05 4.10375 38.7572V35.5565H16.7431V38.7572C16.7431 39.05 16.6278 39.3308 16.4226 39.5378C16.2173 39.7448 15.9389 39.8611 15.6487 39.8611V39.8611Z" fill="#1D1D1B"/>
<path d="M19.264 4.54214L16.3686 1.62179C15.3416 0.587493 13.9497 0.00634988 12.4984 0.00585938H8.38502C6.93689 0.00807408 5.54866 0.589151 4.52449 1.62179L1.6291 4.54214C0.605105 5.57501 0.0289622 6.97528 0.0269775 8.43595V12.5751C0.0289622 14.0357 0.605105 15.436 1.6291 16.4689L4.52449 19.3892C5.54866 20.4219 6.93689 21.0029 8.38502 21.0052H12.4868C13.9382 21.0047 15.33 20.4235 16.357 19.3892L18.8567 16.8583H5.21167C4.9214 16.8583 4.64302 16.7419 4.43777 16.5349C4.23252 16.3279 4.11721 16.0471 4.11721 15.7544V12.5829H20.8603V8.44373C20.8617 6.98125 20.2876 5.578 19.264 4.54214V4.54214ZM4.12493 5.24303C4.12493 4.95026 4.24024 4.66948 4.44549 4.46246C4.65074 4.25544 4.92912 4.13914 5.21938 4.13914H15.6698C15.9601 4.13914 16.2385 4.25544 16.4437 4.46246C16.649 4.66948 16.7643 4.95026 16.7643 5.24303V8.44373H4.11721L4.12493 5.24303Z" fill="#1D1D1B"/>
<path d="M64.8183 4.54214L61.9229 1.62179C60.8959 0.587493 59.5041 0.00634988 58.0527 0.00585938H53.9393C52.4912 0.00807408 51.103 0.589151 50.0788 1.62179L47.1834 4.54214C46.1594 5.57501 45.5833 6.97528 45.5813 8.43595V12.5751C45.5833 14.0357 46.1594 15.436 47.1834 16.4689L50.0788 19.3892C51.103 20.4219 52.4912 21.0029 53.9393 21.0052H58.0412C59.4925 21.0047 60.8843 20.4235 61.9113 19.3892L64.4207 16.8583H50.766C50.4757 16.8583 50.1973 16.7419 49.9921 16.5349C49.7868 16.3279 49.6715 16.0471 49.6715 15.7544V12.5829H66.4146V8.44373C66.416 6.98125 65.8419 5.578 64.8183 4.54214V4.54214ZM49.6792 5.24303C49.6792 4.95026 49.7946 4.66948 49.9998 4.46246C50.2051 4.25544 50.4834 4.13914 50.7737 4.13914H61.2242C61.3679 4.13914 61.5102 4.16768 61.643 4.22316C61.7758 4.27864 61.8964 4.35995 61.9981 4.46246C62.0997 4.56496 62.1803 4.68666 62.2353 4.82059C62.2903 4.95452 62.3186 5.09806 62.3186 5.24303V8.44373H49.6715L49.6792 5.24303Z" fill="#1D1D1B"/>
<path d="M133.15 27.5158L130.254 24.5954C129.23 23.5635 127.842 22.9826 126.394 22.9795H122.292C120.844 22.9817 119.456 23.5628 118.431 24.5954L115.536 27.5158C114.512 28.5486 113.936 29.9489 113.934 31.4096V35.5487C113.936 37.0094 114.512 38.4096 115.536 39.4425L118.431 42.3629C119.456 43.3955 120.844 43.9766 122.292 43.9788H126.394C127.842 43.9757 129.23 43.3948 130.254 42.3629L132.764 39.8319H119.097C118.807 39.8319 118.529 39.7156 118.324 39.5086C118.118 39.3015 118.003 39.0208 118.003 38.728V35.5565H134.746V31.4174C134.748 29.9549 134.173 28.5516 133.15 27.5158ZM118.011 28.2167C118.011 27.9239 118.126 27.6431 118.331 27.4361C118.537 27.2291 118.815 27.1128 119.105 27.1128H129.556C129.846 27.1128 130.124 27.2291 130.33 27.4361C130.535 27.6431 130.65 27.9239 130.65 28.2167V31.4174H118.011V28.2167Z" fill="#1D1D1B"/>
</g>
<defs>
<clipPath id="clip0_627_988">
<rect width="142" height="44" fill="white"/>
</clipPath>
</defs>
</svg>
