<?xml version="1.0" encoding="utf-8"?>
<!-- Generator: Adobe Illustrator 24.2.0, SVG Export Plug-In . SVG Version: 6.00 Build 0)  -->
<svg version="1.1" id="Layer_1" xmlns="http://www.w3.org/2000/svg" xmlns:xlink="http://www.w3.org/1999/xlink" x="0px" y="0px"
	 viewBox="0 0 232 104" style="enable-background:new 0 0 232 104;" xml:space="preserve">
<style type="text/css">
	.st0{fill:#FFFFFF;stroke:#231F20;stroke-width:0.25;stroke-miterlimit:10;}
</style>
<g>
	<path class="st0" d="M37.2-86.6h14.3c3.7,0,6.7,1,9,3c2.3,2,3.5,4.9,3.5,8.7c0,2.6-0.6,4.8-1.8,6.8c-1.2,2-2.9,3.5-5.1,4.6
		c-2.2,1.1-4.8,1.6-7.8,1.6h-7.4l-1.4,10C40-49.7,38.1-48,35.9-48h-4.1L37.2-86.6z M49.7-68.7c1.8,0,3.3-0.6,4.5-1.7
		c1.2-1.1,1.8-2.6,1.8-4.3c0-1.4-0.5-2.6-1.4-3.4c-0.9-0.9-2.2-1.3-3.8-1.3h-6.6l-1.5,10.8H49.7z"/>
	<path class="st0" d="M67.7-49.1c-2.1-1.2-3.7-2.9-4.9-5c-1.1-2.1-1.7-4.5-1.7-7c0-2.2,0.4-4.2,1.1-6.1c0.8-1.9,1.8-3.6,3.2-5
		c1.4-1.5,3-2.6,4.8-3.4c1.8-0.8,3.8-1.2,6-1.2c2.9,0,5.3,0.6,7.3,1.7c2,1.1,3.5,2.7,4.5,4.6c1.1,2.1,1.6,4.6,1.5,7.4
		c0,0.2,0,0.4-0.1,0.6c-0.1,0.8-0.3,1.7-0.5,2.7H69.2c0.1,1.9,0.7,3.3,1.8,4.3c1.1,1,2.5,1.5,4.4,1.5c1.4,0,2.7-0.3,3.7-0.9
		c1.1-0.6,1.9-1.4,2.5-2.3L84-56c2.3,1.2,2.6,4.3,0.5,5.8c-0.5,0.4-1.1,0.7-1.6,1.1c-2.2,1.2-4.8,1.8-7.7,1.8
		C72.4-47.3,69.9-47.9,67.7-49.1z M72.1-69.2c-1,0.9-1.8,2.1-2.3,3.6h11.8c0-1.5-0.5-2.7-1.5-3.6c-0.9-0.9-2.2-1.4-3.8-1.4
		C74.5-70.6,73.1-70.2,72.1-69.2z"/>
	<path class="st0" d="M96.6-48.8c-2.1-1.1-3.6-2.7-4.8-4.8c-1.1-2-1.7-4.4-1.7-7c0-2.5,0.4-4.7,1.3-6.7c0.9-2,2-3.7,3.5-5.1
		c1.5-1.4,3.2-2.5,5.1-3.3c1.9-0.8,4-1.1,6.1-1.1c1.7,0,3.2,0.3,4.6,0.8c1.4,0.5,2.5,1.2,3.5,2.1l1.8-13.3h4.9
		c1.6,0,2.8,1.4,2.6,2.9l-5.1,36.5h-6.2c-0.6,0-1.1-0.5-1-1.1l0.1-0.6c-1,0.8-2.2,1.3-3.5,1.7c-1.3,0.4-2.6,0.6-4,0.6
		C101-47.1,98.6-47.7,96.6-48.8z M109-55.4c1.2-0.8,2.1-1.8,2.8-3.1c0.7-1.3,1-2.8,1-4.4c0-2-0.6-3.6-1.8-4.9
		c-1.2-1.3-2.7-1.9-4.7-1.9c-1.6,0-3,0.4-4.2,1.1c-1.2,0.8-2.2,1.8-2.9,3.1c-0.7,1.3-1,2.8-1,4.4c0,2,0.6,3.7,1.8,5
		c1.2,1.3,2.8,1.9,4.8,1.9C106.5-54.3,107.8-54.7,109-55.4z"/>
	<path class="st0" d="M124.6-49.4c-1.7-1.3-2.6-3.2-2.6-5.8c0-1.9,0.5-3.5,1.4-4.8c1-1.3,2.3-2.3,3.9-3.1c1.6-0.8,3.5-1.4,5.6-1.7
		l8.4-1.3l0.1-0.7c0.2-1.2-0.2-2.1-1.1-2.8c-0.9-0.7-2-1-3.2-1c-1.5,0-2.8,0.4-4,1.2c-1.1,0.8-1.9,1.7-2.5,2.8
		c-0.1,0.1-0.2,0.2-0.4,0.1l-4.8-2.6c-0.6-0.3-0.7-1-0.4-1.6c1.1-1.9,2.7-3.4,4.7-4.5c2.4-1.3,5-2,7.9-2c2.4,0,4.5,0.5,6.4,1.4
		c1.9,0.9,3.3,2.1,4.3,3.7c1,1.6,1.3,3.4,1,5.6l-2.5,18.1c0,0.1-0.1,0.2-0.3,0.2h-6.8c-0.2,0-0.3-0.1-0.3-0.3l0.2-1.2
		c0-0.2-0.2-0.4-0.4-0.3c-1,0.8-2.1,1.3-3.3,1.7c-1.3,0.4-2.8,0.7-4.4,0.7C128.7-47.4,126.4-48,124.6-49.4z M131-53.6
		c0.6,0.4,1.4,0.6,2.4,0.6c1.9,0,3.5-0.6,4.8-1.9c1.3-1.3,2-2.8,2.3-4.5l0.1-0.7l-6.5,1.2c-1.1,0.2-2,0.6-2.8,1.1
		c-0.8,0.5-1.2,1.3-1.2,2.3C130.1-54.6,130.4-54,131-53.6z"/>
	<path class="st0" d="M154.3-87.2h4.6c1.7,0,3.1,1.5,2.8,3.3l-5.1,36.2h-7.9L154.3-87.2z"/>
	<path class="st0" d="M164-87.2h4.1c2,0,3.5,1.7,3.2,3.7l-5,35.8h-7.9L164-87.2z"/>
	<path class="st0" d="M176.9-49c-2.2-1.2-3.9-2.8-5.2-5c-1.3-2.1-1.9-4.5-1.9-7.2c0-2.2,0.4-4.2,1.2-6.1c0.8-1.9,2-3.6,3.5-5
		c1.5-1.4,3.2-2.5,5.1-3.3c1.9-0.8,4-1.2,6.2-1.2c2.7,0,5.1,0.6,7.3,1.8c2.2,1.2,3.9,2.8,5.2,4.9c1.3,2.1,1.9,4.5,1.9,7.2
		c0,2.2-0.4,4.2-1.2,6.1c-0.8,1.9-2,3.6-3.5,5c-1.5,1.4-3.2,2.6-5.1,3.4c-1.9,0.8-4,1.2-6.2,1.2C181.5-47.2,179.1-47.8,176.9-49z
		 M188.4-55.4c1.2-0.8,2.1-1.8,2.8-3.1c0.7-1.3,1-2.8,1-4.4c0-2-0.6-3.7-1.7-4.9c-1.2-1.3-2.7-1.9-4.7-1.9c-1.6,0-2.9,0.4-4.1,1.2
		c-1.2,0.8-2.1,1.8-2.8,3.1c-0.7,1.3-1,2.8-1,4.4c0,2,0.6,3.7,1.7,4.9c1.2,1.3,2.7,1.9,4.7,1.9C185.9-54.3,187.2-54.7,188.4-55.4z"
		/>
	<path class="st0" d="M126.5-84.1c1.5-2.8,5.8-0.6,4.5,2.2c-1.6,3.5-4.1,5.2-5.4,4.5C124.3-77.9,124.7-80.6,126.5-84.1z"/>
</g>
<g>
	<path class="st0" d="M434.9,62.2c0,2.8-2.3,5-5,5c-2.8,0-5-2.3-5-5s2.3-5,5-5C432.7,57.1,434.9,59.4,434.9,62.2z"/>
	<g>
		<path class="st0" d="M276.5,52c0-1.9,0.4-3.7,1.1-5.5c0.7-1.7,1.8-3.3,3.1-4.6c1.3-1.3,2.8-2.3,4.5-3.1c1.7-0.8,3.6-1.1,5.5-1.1
			c1.9,0,3.8,0.4,5.5,1.1c1.7,0.8,3.2,1.8,4.5,3.1c1.3,1.3,2.3,2.8,3.1,4.6c0.8,1.7,1.1,3.6,1.1,5.5c0,2-0.4,3.8-1.1,5.5
			c-0.8,1.7-1.8,3.2-3.1,4.5c-1.3,1.3-2.8,2.3-4.5,3.1c-1.7,0.7-3.6,1.1-5.5,1.1c-2,0-3.8-0.4-5.5-1.1c-1.7-0.7-3.2-1.8-4.5-3.1
			c-1.3-1.3-2.3-2.8-3.1-4.5C276.9,55.9,276.5,54,276.5,52z M280.7,52.1c0,1.4,0.3,2.7,0.8,4c0.5,1.2,1.3,2.3,2.2,3.3
			c0.9,0.9,2,1.7,3.2,2.2c1.2,0.5,2.5,0.8,3.9,0.8c1.4,0,2.7-0.3,3.9-0.8c1.2-0.5,2.3-1.3,3.2-2.2c0.9-0.9,1.6-2,2.2-3.3
			c0.5-1.2,0.8-2.6,0.8-4c0-1.4-0.3-2.7-0.8-4c-0.5-1.2-1.3-2.3-2.2-3.3c-0.9-0.9-2-1.7-3.2-2.2c-1.2-0.5-2.5-0.8-3.9-0.8
			c-1.4,0-2.7,0.3-3.9,0.8c-1.2,0.5-2.3,1.3-3.2,2.2c-0.9,0.9-1.6,2-2.2,3.3C280.9,49.3,280.7,50.7,280.7,52.1z"/>
		<path class="st0" d="M309.9,66V38.1h7.6c1.5,0,2.8,0.2,4,0.6c1.2,0.4,2.3,1,3.2,1.7c0.9,0.8,1.6,1.7,2.1,2.8
			c0.5,1.1,0.7,2.3,0.7,3.8c0,0.8-0.1,1.5-0.2,2.3c-0.2,0.8-0.4,1.5-0.8,2.2c-0.3,0.7-0.8,1.4-1.3,2c-0.5,0.6-1.2,1.1-2,1.5
			c1,1.6,2.1,3.4,3.3,5.4c1.2,2,2.4,3.9,3.7,5.8h-5c-0.5-0.8-1-1.6-1.6-2.5c-0.6-0.9-1.1-1.7-1.7-2.6c-0.6-0.9-1.1-1.7-1.6-2.5
			c-0.5-0.8-1-1.6-1.5-2.3H318h-3.9v10H309.9z M314.1,52h3.8c1,0,1.9-0.2,2.6-0.5c0.7-0.3,1.2-0.8,1.6-1.3c0.4-0.5,0.7-1.1,0.8-1.7
			c0.2-0.6,0.3-1.1,0.3-1.6s-0.1-1-0.3-1.6c-0.2-0.6-0.5-1.1-0.9-1.6c-0.4-0.5-1-0.9-1.6-1.2c-0.7-0.3-1.5-0.5-2.5-0.5h-3.8V52z"/>
		<path class="st0" d="M331.6,52c0-1.9,0.4-3.7,1.1-5.5c0.7-1.7,1.8-3.3,3-4.6c1.3-1.3,2.8-2.3,4.5-3.1c1.7-0.8,3.6-1.1,5.5-1.1
			c1.9,0,3.8,0.4,5.5,1.1c1.7,0.8,3.2,1.8,4.6,3.1c1.3,1.3,2.3,2.8,3.1,4.6c0.8,1.7,1.1,3.6,1.1,5.5c0,2-0.3,3.8-1,5.5
			c-0.7,1.7-1.7,3.3-2.9,4.7L361,62v4c0,0-14.7,0.3-15.2,0.3c-2,0-3.8-0.4-5.5-1.1c-1.7-0.7-3.2-1.8-4.5-3.1c-1.3-1.3-2.3-2.8-3-4.5
			C332,55.9,331.6,54,331.6,52z M335.8,52.1c0,1.4,0.3,2.7,0.8,4c0.5,1.2,1.2,2.3,2.2,3.3c0.9,0.9,2,1.7,3.2,2.2
			c1.2,0.5,2.6,0.8,4,0.8c1.4,0,2.7-0.3,3.9-0.8c1.2-0.5,2.3-1.3,3.2-2.2c0.9-0.9,1.6-2,2.2-3.3c0.5-1.2,0.8-2.6,0.8-4
			c0-1.4-0.3-2.7-0.8-4c-0.5-1.2-1.3-2.3-2.2-3.3c-0.9-0.9-2-1.7-3.2-2.2c-1.2-0.5-2.5-0.8-3.9-0.8c-1.4,0-2.7,0.3-3.9,0.8
			c-1.2,0.5-2.3,1.3-3.2,2.2c-0.9,0.9-1.6,2-2.1,3.3C336.1,49.3,335.8,50.7,335.8,52.1z"/>
		<path class="st0" d="M363.3,52c0-1.9,0.4-3.7,1.1-5.5c0.7-1.7,1.8-3.3,3.1-4.6c1.3-1.3,2.8-2.3,4.5-3.1c1.7-0.8,3.6-1.1,5.5-1.1
			c1.9,0,3.8,0.4,5.5,1.1c1.7,0.8,3.2,1.8,4.5,3.1c1.3,1.3,2.3,2.8,3.1,4.6c0.8,1.7,1.1,3.6,1.1,5.5c0,2-0.4,3.8-1.1,5.5
			c-0.8,1.7-1.8,3.2-3.1,4.5c-1.3,1.3-2.8,2.3-4.5,3.1c-1.7,0.7-3.6,1.1-5.5,1.1c-2,0-3.8-0.4-5.5-1.1c-1.7-0.7-3.2-1.8-4.5-3.1
			c-1.3-1.3-2.3-2.8-3.1-4.5C363.6,55.9,363.3,54,363.3,52z M367.5,52.1c0,1.4,0.3,2.7,0.8,4c0.5,1.2,1.3,2.3,2.2,3.3
			c0.9,0.9,2,1.7,3.2,2.2c1.2,0.5,2.5,0.8,3.9,0.8c1.4,0,2.7-0.3,3.9-0.8c1.2-0.5,2.3-1.3,3.2-2.2c0.9-0.9,1.6-2,2.2-3.3
			c0.5-1.2,0.8-2.6,0.8-4c0-1.4-0.3-2.7-0.8-4c-0.5-1.2-1.3-2.3-2.2-3.3c-0.9-0.9-2-1.7-3.2-2.2c-1.2-0.5-2.5-0.8-3.9-0.8
			c-1.4,0-2.7,0.3-3.9,0.8c-1.2,0.5-2.3,1.3-3.2,2.2c-0.9,0.9-1.6,2-2.2,3.3C367.7,49.3,367.5,50.7,367.5,52.1z"/>
		<path class="st0" d="M421.1,38.1v29.2c-0.4-0.5-1.1-1.2-2.1-2.2c-1-1-2.2-2.2-3.5-3.5c-1.3-1.3-2.7-2.7-4.3-4.2
			c-1.5-1.5-2.9-2.9-4.3-4.2c-1.3-1.3-2.5-2.5-3.5-3.5c-1-1-1.7-1.8-2-2.2l-0.7-1l0.1,1.2V66h-4.2V36.8c0.3,0.4,0.8,0.9,1.4,1.5
			c0.7,0.7,1.4,1.4,2.3,2.3c0.9,0.9,1.9,1.8,2.9,2.9c1.1,1,2.1,2.1,3.2,3.1c1.1,1.1,2.2,2.1,3.2,3.1c1.1,1,2,2,2.9,2.8
			c0.9,0.9,1.6,1.6,2.3,2.3c0.6,0.7,1.1,1.2,1.3,1.5l0.7,1.1l-0.1-1.3v-18H421.1z"/>
	</g>
</g>
<g>
	<path class="st0" d="M335.2-56.5c-1.4-2.5-2.8-5-4.2-7.4c-0.2-0.4-0.2-0.6,0.2-0.8c3.1-1.7,4.5-4.9,3.7-8.2
		c-0.8-3.2-3.6-5.3-7.1-5.3c-4.5,0-8.9,0-13.4,0c-0.2,0-0.6-0.2-0.8,0.2c0,7.4,0,14.8,0,22.2c0,0.4,0.2,0.5,0.5,0.5
		c1.1,0,2.1,0,3.2,0c0.5,0,0.7-0.1,0.7-0.7c0-2.6,0-5.3,0-7.9c0.1,0,0.1,0,0.1-0.1c2.2,0,4.3,0,6.5,0c1.3,0.2,2.1,1,2.6,2.1
		c0.9,1.8,1.9,3.5,2.9,5.2c0.4,0.7,0.8,1.2,1.7,1.3c1.2,0,2.4,0.1,3.7,0.1c0.6,0,0.3-0.3,0.1-0.5C335.5-56,335.4-56.2,335.2-56.5z
		 M329-67.7c-0.6,0.3-1.2,0.1-1.8,0.1c-2.9,0-5.8,0-8.6,0c-0.6,0-0.8-0.2-0.7-0.8c0-1.8,0-3.6,0-5.4c0-0.6,0.2-0.8,0.8-0.7
		c1.6,0,3.1,0,4.7,0c1.5,0,3,0,4.5,0c1.9,0,3.3,1.2,3.6,2.9C331.7-69.9,330.7-68.4,329-67.7z"/>
	<path class="st0" d="M347.9-74.5c4.7,0,9.4,0,14.2,0c0.2,0,0.5,0.1,0.5-0.3c0-1,0-1.9,0-2.9c0-0.4-0.1-0.5-0.5-0.5
		c-5.6,0-11.2,0-16.7,0c-1.1,0-1.7,0.6-1.9,1.7c0,6.9,0,13.8,0,20.7c0,0.6,0.2,0.6,0.7,0.6c6,0,11.9,0,17.9,0c0.2,0,0.5,0.2,0.6-0.2
		c0-1.1,0-2.2,0-3.3c-0.1-0.3-0.3-0.2-0.5-0.2c-4.7,0-9.5,0-14.2,0c-0.1-0.1-0.1-0.1-0.2-0.2c0-1.4,0-2.8,0-4.3
		c0.3-0.7,0.8-1.2,1.5-1.5c3,0,6,0,9,0c0.5,0,0.6-0.1,0.6-0.6c0-0.8,0-1.6,0-2.5c0-0.5-0.2-0.6-0.6-0.6c-3.4,0-6.9,0-10.3,0
		c-0.1-0.1-0.1-0.1-0.2-0.2c0-1.9,0-3.9,0-5.8C347.8-74.5,347.8-74.5,347.9-74.5z"/>
	<path class="st0" d="M389.6-78.2c-5.5,0-11,0-16.6,0c-1.7,0-2.3,0.7-2.3,2.3c0,6.6,0,13.2,0,19.8c0,0.2-0.2,0.6,0.2,0.8
		c1.2,0,2.4,0,3.6,0c0.4,0,0.5-0.1,0.5-0.5c0-2.5,0-4.9,0-7.4c0.3-0.8,0.7-1.3,1.5-1.7c0.4,0,0.7,0,1.1,0c2.9,0,5.9,0,8.8,0
		c0.4-0.6,0.1-1.3,0.2-2c0-0.5,0.2-1.1-0.2-1.6c-3.8,0-7.5,0-11.3,0c0-0.1-0.1-0.1-0.1-0.2c0-1.9,0-3.9,0-5.8c0,0,0.1-0.1,0.1-0.1
		c1.5,0,3.1,0,4.6,0c3.4,0,6.8,0,10.1,0c0.5,0.2,0.5-0.1,0.5-0.4c0-0.8,0-1.6,0-2.4C390.5-78,390.3-78.2,389.6-78.2z"/>
	<path class="st0" d="M291.2-78.2c-5.5,0-11,0-16.6,0c-1.7,0-2.3,0.7-2.3,2.3c0,6.6,0,13.2,0,19.8c0,0.2-0.2,0.6,0.2,0.8
		c1.2,0,2.4,0,3.7,0c0.6,0,0.5-0.3,0.5-0.6c0-2.4,0-4.8,0-7.3c0.2-0.8,0.7-1.3,1.5-1.7c0.4,0,0.7,0,1.1,0c2.9,0,5.9,0,8.8,0
		c0.4-0.6,0.1-1.3,0.2-2c0-0.5,0.2-1.1-0.2-1.6c-3.8,0-7.5,0-11.3,0c0-0.1-0.1-0.1-0.1-0.2c0-1.9,0-3.9,0-5.8c0,0,0.1-0.1,0.1-0.1
		c3.7,0,7.5,0,11.2,0c1.3,0,2.5,0,3.8-0.1c0.3-0.9,0-1.9,0.1-2.8C292-78.1,291.8-78.2,291.2-78.2z"/>
	<path class="st0" d="M439.1-78.2c-1.2,0-2.5,0-3.7,0c-0.5,0-0.8,0.2-1.1,0.6c-2.1,2.9-4.2,5.7-6.2,8.6c-0.4,0.6-0.6,0.8-1.1,0
		c-2-2.9-4.2-5.8-6.3-8.6c-0.2-0.3-0.3-0.6-0.7-0.6c-1.6,0-3.3,0-5.1,0c1,1.4,2,2.7,2.9,4c2.4,3.2,4.7,6.5,7.1,9.7
		c0,0.3,0.1,0.6,0.1,0.9c0,2.5,0,5,0,7.5c0,0.7,0.2,0.9,0.9,0.8c0.7-0.1,1.4,0,2-0.1c0.8-0.1,1.2-0.6,1.4-1.4c0-2.6,0-5.1,0-7.7
		c3.3-4.5,6.6-9,9.9-13.6C439.2-78,439.1-78.1,439.1-78.2z"/>
	<path class="st0" d="M304.3-66.8c0-3.6,0-7.1,0-10.7c0-0.6-0.1-0.8-0.7-0.8c-0.6,0.1-1.1,0-1.7,0c-1.2,0-1.9,0.7-1.9,1.9
		c0,6.8,0,13.6,0,20.5c0,0.5,0.2,0.6,0.6,0.5c1,0,2,0,3,0c0.6,0,0.8-0.1,0.8-0.8C304.2-59.6,304.3-63.2,304.3-66.8z"/>
	<path class="st0" d="M416.4-58.1c0.1-0.7-0.2-0.8-0.8-0.8c-4.4,0-8.8,0-13.2,0c0-1.5,0-3,0-4.4c0-4.7,0-9.4,0-14
		c0-0.3,0.2-0.8-0.3-0.8c-1.3,0-2.7-0.2-4,0.1c0,0.1,0,0.2,0,0.2c0,6.9,0,13.7,0,20.6c0,0.3-0.1,0.6,0.2,0.8c0,0.6,0.4,0.9,0.9,0.9
		c0.3,0.3,0.7,0.2,1,0.2c5.1,0,10.2,0,15.4,0c0.6,0,0.9-0.1,0.9-0.8C416.4-56.7,416.4-57.4,416.4-58.1z"/>
</g>
<g>
	<path class="st0" d="M542.5-63.8c-2.1,0-4.1,0-6.2,0c0-1.5,0-2.8,0-4.2c4.2,0,8.3,0,12.3,0c0.9,4.8-2,10.6-8.1,12.3
		c-6.1,1.7-12.3-1.9-13.9-8c-1.6-6.3,1.9-12.6,8-14.2c5.7-1.5,12.1,1.8,13.5,7.1c-1.9,0-3.8,0-5.7,0c-0.3,0-0.6-0.3-0.9-0.6
		c-2.1-1.8-4.7-2-6.9-0.7c-2.2,1.3-3.3,3.9-2.8,6.4c0.6,2.7,2.7,4.7,5.3,5C539.2-60.4,541.5-61.6,542.5-63.8z"/>
	<path class="st0" d="M668.3-55.7c-1.4,0-2.8,0.1-4.2,0c-0.3,0-0.7-0.4-0.9-0.8c-2.3-3.4-4.6-6.8-6.8-10.2c-0.2-0.4-0.5-0.7-1-1.3
		c0,0.7-0.1,1.1-0.1,1.4c0,3.3,0,6.6,0,9.9c0,0.8-0.2,1.1-1,1.1c-1.4-0.1-2.8,0-4.2,0c0-7.4,0-14.6,0-22c1.5,0,3,0,4.5,0
		c0.3,0,0.6,0.5,0.8,0.8c2.2,3.4,4.5,6.8,6.7,10.2c0.2,0.3,0.5,0.6,0.9,1.2c0-0.7,0.1-1.1,0.1-1.4c0-3.3,0-6.5,0-9.8
		c0-0.8,0.2-1.1,1-1.1c1.4,0.1,2.8,0,4.2,0C668.3-70.3,668.3-63.1,668.3-55.7z"/>
	<path class="st0" d="M578.5-55.3c-6.5,0-11.4-5-11.3-11.7c0-6.2,5.1-11.2,11.4-11.2c6.2,0,11.3,5.1,11.3,11.3
		C589.9-60.4,584.9-55.3,578.5-55.3z M584.5-66.9c0-3.3-2.6-5.9-5.8-5.9c-3.4,0-6,2.7-6,6c0.1,3.4,2.8,6.2,6,6.2
		C581.9-60.7,584.5-63.5,584.5-66.9z"/>
	<path class="st0" d="M637.3-55.3c-6.5,0-11.3-5.1-11.3-11.8c0.1-6.3,5.2-11.1,11.6-11.1c6.2,0,11.2,5.2,11.1,11.5
		C648.8-60.3,643.7-55.3,637.3-55.3z M637.6-72.8c-3.4,0-6.1,2.6-6,5.9c0,3.4,2.8,6.2,5.9,6.3c3.2,0,5.9-2.8,5.9-6.2
		C643.4-70.1,640.8-72.8,637.6-72.8z"/>
	<path class="st0" d="M561.2-63.2c1.8,2.5,3.5,4.9,5.3,7.5c-2.2,0-4.2,0-6.2,0c-0.3,0-0.6-0.5-0.8-0.8c-1.2-2-2.4-4-3.8-6
		c0,2.2,0,4.4,0,6.8c-1.7,0-3.3,0-4.9,0c-0.2,0-0.5-0.6-0.5-0.9c0-2.2,0-4.3,0-6.5c0-4.4,0-8.8,0-13.3c0-1,0.2-1.4,1.3-1.4
		c2.5,0.1,5,0,7.6,0.1c3.8,0.1,6.2,2.1,6.9,5.8c0.7,3.7-1,7-4.2,8.4C561.7-63.5,561.6-63.4,561.2-63.2z M555.7-67.4
		c1.3-0.2,2.5-0.2,3.6-0.5c1.1-0.3,1.5-1.2,1.5-2.4c0-1.1-0.4-2-1.5-2.3c-1.2-0.3-2.4-0.3-3.6-0.5C555.7-71.1,555.7-69.4,555.7-67.4
		z"/>
	<path class="st0" d="M602.4-77.7c1.7,0,3.2,0,4.7,0c0.2,0,0.6,0.4,0.6,0.7c0,5,0.1,10-0.2,15c-0.2,3.8-3.4,6.6-7.2,6.6
		c-1.4,0-3-0.1-4.3-0.6c-2.8-1-4.2-3.4-4.3-6.2c-0.2-4.9-0.1-9.8-0.1-14.7c0-0.3,0.4-0.7,0.6-0.8c1.5-0.1,3,0,4.6,0
		c0,0.5,0,0.9,0,1.3c0,4,0,8,0,12.1c0,0.7,0.1,1.3,0.2,2c0.3,1.4,1.1,2.1,2.4,2.1c1.5,0,2.4-0.6,2.7-2c0.2-0.7,0.2-1.4,0.2-2.2
		C602.4-68.8,602.4-73.2,602.4-77.7z"/>
	<path class="st0" d="M609.4-77.7c3.3,0,6.6-0.2,9.8,0c3.9,0.3,6.4,3.8,6,7.7c-0.5,4.5-3.1,6.9-7.6,7c-0.9,0-1.9,0-3,0
		c0,2-0.1,3.9,0,5.8c0.1,1.1-0.3,1.5-1.4,1.4c-1.3-0.1-2.5,0-3.9,0C609.4-63.1,609.4-70.3,609.4-77.7z M614.8-67.7
		c2.2,0.4,4-0.1,4.7-1.1c0.6-0.9,0.5-2.3-0.1-3.1c-0.7-0.9-2.9-1.4-4.6-0.9C614.8-71.1,614.8-69.4,614.8-67.7z"/>
</g>
<g>
	<path class="st0" d="M38.7,76.5c-8.5-0.3-15.2-3.9-20-11c-2.1-3.2-3.4-6.7-3.8-10.5c-0.8-7.5,1.3-14.1,6.4-19.7
		c3.5-3.9,7.9-6.4,13.1-7.3c7.2-1.3,13.8,0.3,19.5,4.9c4.5,3.6,7.4,8.3,8.5,14c1.6,8.1-0.3,15.3-5.7,21.5c-3.7,4.2-8.4,6.7-13.9,7.7
		c-0.5,0.1-1.1,0.2-1.6,0.2c-0.7,0-1.5,0-2.2,0C38.7,76.4,38.7,76.4,38.7,76.5z M48.2,30.3c-1-0.3-2-0.2-3.1-0.1
		c-2.7,0.2-5.3,1-7.7,2.2c-4.3,2.1-7.6,5.1-9.9,9.3c-2,3.7-2.9,7.6-2.3,11.7c0.5,3.5,1.9,6.6,4.6,9c3.1,2.8,6.7,4,10.8,3.3
		c4.3-0.8,7.4-3.3,9.3-7.2c1.3-2.7,1.6-5.6,1-8.6c-0.4-2.1-1.3-4-2.8-5.6c-1.5-1.6-3.3-2.6-5.3-3.3c-0.7-0.2-1.4-0.4-2.1-0.7
		c-0.1-1.9,0.4-3.6,1.3-5.2C43.4,32.7,45.5,31.1,48.2,30.3z"/>
	<path class="st0" d="M119.9,43.6c0-2.3,0-4.5,0-6.8c1.5,0,2.9,0,4.4,0c0,8.3,0,16.5,0,24.7c-1.4,0-2.7,0-4,0
		c-0.1-0.4-0.1-0.8-0.2-1.3c-0.1,0.1-0.3,0.2-0.3,0.3c-1.1,1.1-2.5,1.5-4,1.4c-2.7-0.2-4.5-1.6-5.7-3.9c-1.1-2.1-1.4-4.3-1.2-6.6
		c0.1-1.5,0.5-3,1.3-4.3c1.2-2,3-3.3,5.3-3.8c1.3-0.2,2.6-0.1,3.9,0.2c0.1,0,0.3,0.1,0.5,0.1C119.7,43.6,119.7,43.6,119.9,43.6z
		 M119.8,47.5c-1.1-0.5-2.2-0.7-3.4-0.5c-1.3,0.3-2.2,1.1-2.8,2.3c-0.6,1.2-0.7,2.5-0.6,3.8c0.1,1.1,0.3,2.1,0.9,3.1
		c1.4,2.2,3.9,2.1,5.5,0.7c0.3-0.3,0.4-0.6,0.4-1c0-2.6,0-5.2,0-7.8C119.8,47.9,119.8,47.7,119.8,47.5z"/>
	<path class="st0" d="M210.3,53.8c-4,0-7.9,0-11.9,0c0.1,1.4,0.5,2.6,1.7,3.4c1.2,0.7,2.5,0.9,3.8,0.8c1.6-0.1,3.1-0.6,4.4-1.5
		c0.4,1.2,0.8,2.4,1.3,3.6c-0.5,0.2-0.9,0.5-1.4,0.7c-2.6,1-5.2,1.3-7.9,0.7c-3.8-0.7-5.9-3.6-6.4-6.7c-0.3-1.9-0.3-3.9,0.4-5.7
		c1.1-3.1,3.4-4.9,6.6-5.4c1.8-0.3,3.5-0.1,5.2,0.7c1.7,0.8,2.8,2.1,3.5,3.8c0.5,1.3,0.8,2.7,0.8,4.1
		C210.3,52.7,210.3,53.2,210.3,53.8z M205.5,50.6c-0.1-1.3-0.6-2.3-1.6-3c-1.2-0.8-2.5-0.6-3.7,0.1c-1.1,0.7-1.6,1.6-1.7,2.9
		C200.8,50.6,203.2,50.6,205.5,50.6z"/>
	<path class="st0" d="M175.3,43.8c1.3,0,2.6,0,4,0c0.1,0.4,0.2,0.9,0.2,1.3c0.2-0.1,0.3-0.2,0.4-0.3c1.3-1,2.8-1.5,4.5-1.5
		c1.5,0,3,0.3,4.2,1.3c1,0.8,1.5,1.9,1.8,3.1c0.3,1.1,0.4,2.2,0.4,3.3c0,3.4,0,6.9,0,10.3c0,0.1,0,0.2,0,0.4c-0.4,0.1-3.8,0.1-4.5,0
		c0-0.2,0-0.4,0-0.6c0-3.2,0-6.4,0-9.6c0-0.6-0.1-1.2-0.2-1.8c0-0.1,0-0.2-0.1-0.3c-0.7-2.5-2.9-2.8-4.5-2c-0.6,0.3-1.2,0.8-1.8,1.2
		c-0.2,0.2-0.2,0.4-0.2,0.6c0,1.4,0,2.8,0,4.3c0,2.5,0,5,0,7.5c0,0.2,0,0.4,0,0.6c-1.5,0-2.9,0-4.4,0c0,0,0,0,0,0c0,0,0,0,0,0
		c0-0.1,0-0.1,0-0.2c0-5.8,0-11.7,0-17.5C175.2,44,175.2,44,175.3,43.8z"/>
	<path class="st0" d="M164.2,61.9c-3.8,0-6.7-2-7.9-5.5c-1-2.7-0.9-5.4,0.2-8.1c1.1-2.6,3.1-4.3,5.9-4.7c2.7-0.4,5.1,0,7.2,1.9
		c1.2,1.1,2,2.4,2.5,4c0.8,2.5,0.7,5.1-0.4,7.5c-1.2,2.7-3.1,4.4-6.1,4.9c-0.1,0-0.2,0-0.4,0C164.9,61.8,164.5,61.9,164.2,61.9z
		 M168.1,52.6c0-1-0.1-2-0.5-2.9c-0.4-1-1-1.8-2-2.2c-1.8-0.8-3.8-0.1-4.8,1.7c-0.4,0.8-0.6,1.6-0.7,2.5c-0.1,1.5,0,2.9,0.7,4.2
		c0.4,0.8,1.1,1.5,2,1.8c1.7,0.6,3.5-0.1,4.4-1.7C167.9,55,168.1,53.8,168.1,52.6z"/>
	<path class="st0" d="M98.8,61.9c-2.7,0-4.9-1-6.5-3.2c-1-1.3-1.6-2.9-1.8-4.5c-0.3-2.4,0-4.7,1.2-6.8c1.4-2.4,3.4-3.7,6.2-3.9
		c1.5-0.1,3,0,4.4,0.6c1.9,0.9,3.3,2.3,4.1,4.3c1.3,3.3,1.2,6.5-0.5,9.6c-1.4,2.4-3.5,3.7-6.3,4c-0.2,0-0.4,0-0.6,0
		C98.9,61.9,98.9,61.9,98.8,61.9z M102.9,52.6c0-1.1-0.2-2.1-0.6-3c-0.8-1.9-2.8-2.9-4.7-2.1c-1.1,0.4-1.8,1.2-2.2,2.3
		c-0.3,0.8-0.5,1.6-0.5,2.5c-0.1,1.3,0.1,2.7,0.8,3.9c0.7,1.2,1.7,1.9,3.1,2c1.4,0,2.5-0.6,3.2-1.8C102.7,55,102.8,53.8,102.9,52.6z
		"/>
	<path class="st0" d="M142.5,61.4c-1.4,0-2.7,0-4,0c-0.1-0.4-0.1-0.8-0.2-1.2c-0.2,0.2-0.3,0.3-0.4,0.4c-2.3,2-6.6,1.8-8.6-1.1
		c-1.3-1.8-1.4-4.9,0.4-6.8c0.7-0.7,1.5-1.2,2.5-1.6c1.3-0.5,2.7-0.8,4.1-0.9c0.6-0.1,1.2-0.1,1.8-0.2c0.3-1.5-0.6-2.8-2.1-3
		c-1.4-0.2-2.7,0.2-3.9,0.9c-0.3,0.2-0.7,0.4-1.1,0.7c-0.5-1-1-2.1-1.4-3.1c0.5-0.5,1-0.8,1.6-1c1.5-0.7,3.1-1.1,4.7-1.2
		c1.3,0,2.6,0.1,3.7,0.7c1.7,0.9,2.6,2.4,2.9,4.2c0.1,0.7,0.1,1.4,0.1,2.1c0,3.5,0,7,0,10.5C142.5,61.1,142.5,61.2,142.5,61.4z
		 M138.1,53.1c-0.9,0.1-1.6,0.2-2.4,0.3c-0.6,0.1-1.3,0.3-1.9,0.6c-0.7,0.3-1.1,0.9-1.2,1.7c-0.2,1.2,0.4,2.1,1.5,2.3
		c1.4,0.3,2.7-0.2,3.8-1c0.2-0.1,0.2-0.3,0.2-0.5c0-0.6,0-1.3,0-1.9C138.1,54.1,138.1,53.7,138.1,53.1z"/>
	<path class="st0" d="M147.5,61.8c0-4.7,0-9.4,0-14.1c-0.8,0-1.5,0-2.2,0c0-1.3,0-2.4,0-3.7c0.7,0,1.4,0,2.2,0c0-0.3,0-0.5,0-0.7
		c0-0.9,0.1-1.8,0.3-2.7c0.6-2.3,2.3-3.7,4.6-3.9c1.7-0.1,3.2,0.1,4.5,0.7c-0.1,1.2-0.3,2.5-0.5,3.7c-0.7-0.1-1.3-0.3-1.9-0.4
		c-0.5-0.1-1,0-1.4,0.1c-0.7,0.3-1.1,0.8-1.2,1.5c-0.1,0.5-0.1,1.1-0.1,1.6c0.7,0.1,1.3,0,1.9,0c0.6,0,1.2,0,1.8,0
		c0,1.2,0,2.4,0,3.7c-1.2,0-2.4,0-3.6,0c0,0.3,0,0.5,0,0.7c0,4.2,0,8.5,0,12.7c0,0.2,0,0.4,0,0.7C150.3,61.8,148.9,61.8,147.5,61.8z
		"/>
	<path class="st0" d="M70.8,44.7c1.6,0,3.1,0,4.7,0c1.5,3.8,3,7.5,4.5,11.3c0,0,0.1,0,0.1,0c1.4-3.8,2.9-7.5,4.4-11.3
		c1.5,0,3,0,4.5,0c0,0.1-0.1,0.3-0.1,0.4c-2,4.8-3.9,9.6-5.9,14.3c-0.3,0.7-0.6,1.4-0.9,2.1c-0.1,0.2-0.2,0.3-0.5,0.3
		c-1,0-2.1,0-3.1,0c-0.3,0-0.4-0.1-0.6-0.4c-1.7-4-3.4-8-5.1-11.9c-0.6-1.4-1.2-2.9-1.8-4.3C71,45,70.9,44.9,70.8,44.7z"/>
</g>
</svg>
