<?xml version="1.0" encoding="utf-8"?>
<!-- Generator: Adobe Illustrator 24.2.0, SVG Export Plug-In . SVG Version: 6.00 Build 0)  -->
<svg version="1.1" id="Layer_1" xmlns="http://www.w3.org/2000/svg" xmlns:xlink="http://www.w3.org/1999/xlink" x="0px" y="0px"
	 viewBox="0 0 232 104" style="enable-background:new 0 0 232 104;" xml:space="preserve">
<style type="text/css">
	.st0{fill:#FFFFFF;stroke:#231F20;stroke-width:0.25;stroke-miterlimit:10;}
</style>
<g>
	<path class="st0" d="M-204.8-199.3h14.3c3.7,0,6.7,1,9,3c2.3,2,3.5,4.9,3.5,8.7c0,2.6-0.6,4.8-1.8,6.8c-1.2,2-2.9,3.5-5.1,4.6
		c-2.2,1.1-4.8,1.6-7.8,1.6h-7.4l-1.4,10c-0.3,2.2-2.2,3.9-4.4,3.9h-4.1L-204.8-199.3z M-192.3-181.5c1.8,0,3.3-0.6,4.5-1.7
		c1.2-1.1,1.8-2.6,1.8-4.3c0-1.4-0.5-2.6-1.4-3.4c-0.9-0.9-2.2-1.3-3.8-1.3h-6.6l-1.5,10.8H-192.3z"/>
	<path class="st0" d="M-174.2-161.9c-2.1-1.2-3.7-2.9-4.9-5c-1.1-2.1-1.7-4.5-1.7-7c0-2.2,0.4-4.2,1.1-6.1c0.8-1.9,1.8-3.6,3.2-5
		c1.4-1.5,3-2.6,4.8-3.4c1.8-0.8,3.8-1.2,6-1.2c2.9,0,5.3,0.6,7.3,1.7c2,1.1,3.5,2.7,4.5,4.6c1.1,2.1,1.6,4.6,1.5,7.4
		c0,0.2,0,0.4-0.1,0.6c-0.1,0.8-0.3,1.7-0.5,2.7h-19.9c0.1,1.9,0.7,3.3,1.8,4.3c1.1,1,2.5,1.5,4.4,1.5c1.4,0,2.7-0.3,3.7-0.9
		c1.1-0.6,1.9-1.4,2.5-2.3l2.4,1.2c2.3,1.2,2.6,4.3,0.5,5.8c-0.5,0.4-1.1,0.7-1.6,1.1c-2.2,1.2-4.8,1.8-7.7,1.8
		C-169.6-160-172.1-160.6-174.2-161.9z M-169.9-182c-1,0.9-1.8,2.1-2.3,3.6h11.8c0-1.5-0.5-2.7-1.5-3.6c-0.9-0.9-2.2-1.4-3.8-1.4
		C-167.4-183.4-168.8-182.9-169.9-182z"/>
	<path class="st0" d="M-145.4-161.6c-2.1-1.1-3.6-2.7-4.8-4.8c-1.1-2-1.7-4.4-1.7-7c0-2.5,0.4-4.7,1.3-6.7c0.9-2,2-3.7,3.5-5.1
		c1.5-1.4,3.2-2.5,5.1-3.3c1.9-0.8,4-1.1,6.1-1.1c1.7,0,3.2,0.3,4.6,0.8c1.4,0.5,2.5,1.2,3.5,2.1l1.8-13.3h4.9
		c1.6,0,2.8,1.4,2.6,2.9l-5.1,36.5h-6.2c-0.6,0-1.1-0.5-1-1.1l0.1-0.6c-1,0.8-2.2,1.3-3.5,1.7c-1.3,0.4-2.6,0.6-4,0.6
		C-141-159.8-143.3-160.4-145.4-161.6z M-132.9-168.2c1.2-0.8,2.1-1.8,2.8-3.1c0.7-1.3,1-2.8,1-4.4c0-2-0.6-3.6-1.8-4.9
		c-1.2-1.3-2.7-1.9-4.7-1.9c-1.6,0-3,0.4-4.2,1.1c-1.2,0.8-2.2,1.8-2.9,3.1c-0.7,1.3-1,2.8-1,4.4c0,2,0.6,3.7,1.8,5
		c1.2,1.3,2.8,1.9,4.8,1.9C-135.5-167-134.1-167.4-132.9-168.2z"/>
	<path class="st0" d="M-117.3-162.1c-1.7-1.3-2.6-3.2-2.6-5.8c0-1.9,0.5-3.5,1.4-4.8c1-1.3,2.3-2.3,3.9-3.1c1.6-0.8,3.5-1.4,5.6-1.7
		l8.4-1.3l0.1-0.7c0.2-1.2-0.2-2.1-1.1-2.8c-0.9-0.7-2-1-3.2-1c-1.5,0-2.8,0.4-4,1.2c-1.1,0.8-1.9,1.7-2.5,2.8
		c-0.1,0.1-0.2,0.2-0.4,0.1l-4.8-2.6c-0.6-0.3-0.7-1-0.4-1.6c1.1-1.9,2.7-3.4,4.7-4.5c2.4-1.3,5-2,7.9-2c2.4,0,4.5,0.5,6.4,1.4
		c1.9,0.9,3.3,2.1,4.3,3.7c1,1.6,1.3,3.4,1,5.6l-2.5,18.1c0,0.1-0.1,0.2-0.3,0.2h-6.8c-0.2,0-0.3-0.1-0.3-0.3l0.2-1.2
		c0-0.2-0.2-0.4-0.4-0.3c-1,0.8-2.1,1.3-3.3,1.7c-1.3,0.4-2.8,0.7-4.4,0.7C-113.3-160.1-115.6-160.8-117.3-162.1z M-110.9-166.3
		c0.6,0.4,1.4,0.6,2.4,0.6c1.9,0,3.5-0.6,4.8-1.9c1.3-1.3,2-2.8,2.3-4.5l0.1-0.7l-6.5,1.2c-1.1,0.2-2,0.6-2.8,1.1
		c-0.8,0.5-1.2,1.3-1.2,2.3C-111.9-167.3-111.5-166.7-110.9-166.3z"/>
	<path class="st0" d="M-87.6-199.9h4.6c1.7,0,3.1,1.5,2.8,3.3l-5.1,36.2h-7.9L-87.6-199.9z"/>
	<path class="st0" d="M-77.9-199.9h4.1c2,0,3.5,1.7,3.2,3.7l-5,35.8h-7.9L-77.9-199.9z"/>
	<path class="st0" d="M-65.1-161.8c-2.2-1.2-3.9-2.8-5.2-5c-1.3-2.1-1.9-4.5-1.9-7.2c0-2.2,0.4-4.2,1.2-6.1c0.8-1.9,2-3.6,3.5-5
		c1.5-1.4,3.2-2.5,5.1-3.3c1.9-0.8,4-1.2,6.2-1.2c2.7,0,5.1,0.6,7.3,1.8s3.9,2.8,5.2,4.9c1.3,2.1,1.9,4.5,1.9,7.2
		c0,2.2-0.4,4.2-1.2,6.1c-0.8,1.9-2,3.6-3.5,5c-1.5,1.4-3.2,2.6-5.1,3.4c-1.9,0.8-4,1.2-6.2,1.2C-60.4-160-62.9-160.6-65.1-161.8z
		 M-53.5-168.2c1.2-0.8,2.1-1.8,2.8-3.1c0.7-1.3,1-2.8,1-4.4c0-2-0.6-3.7-1.7-4.9c-1.2-1.3-2.7-1.9-4.7-1.9c-1.6,0-2.9,0.4-4.1,1.2
		c-1.2,0.8-2.1,1.8-2.8,3.1c-0.7,1.3-1,2.8-1,4.4c0,2,0.6,3.7,1.7,4.9c1.2,1.3,2.7,1.9,4.7,1.9C-56.1-167-54.7-167.4-53.5-168.2z"/>
	<path class="st0" d="M-115.4-196.8c1.5-2.8,5.8-0.6,4.5,2.2c-1.6,3.5-4.1,5.2-5.4,4.5C-117.6-190.6-117.2-193.4-115.4-196.8z"/>
</g>
<g>
	<path class="st0" d="M193-50.5c0,2.8-2.3,5-5,5c-2.8,0-5-2.3-5-5s2.3-5,5-5C190.7-55.6,193-53.3,193-50.5z"/>
	<g>
		<path class="st0" d="M34.5-60.7c0-1.9,0.4-3.7,1.1-5.5c0.7-1.7,1.8-3.3,3.1-4.6c1.3-1.3,2.8-2.3,4.5-3.1c1.7-0.8,3.6-1.1,5.5-1.1
			c1.9,0,3.8,0.4,5.5,1.1c1.7,0.8,3.2,1.8,4.5,3.1c1.3,1.3,2.3,2.8,3.1,4.6c0.8,1.7,1.1,3.6,1.1,5.5c0,2-0.4,3.8-1.1,5.5
			c-0.8,1.7-1.8,3.2-3.1,4.5c-1.3,1.3-2.8,2.3-4.5,3.1c-1.7,0.7-3.6,1.1-5.5,1.1c-2,0-3.8-0.4-5.5-1.1c-1.7-0.7-3.2-1.8-4.5-3.1
			c-1.3-1.3-2.3-2.8-3.1-4.5C34.9-56.9,34.5-58.7,34.5-60.7z M38.7-60.7c0,1.4,0.3,2.7,0.8,4c0.5,1.2,1.3,2.3,2.2,3.3
			c0.9,0.9,2,1.7,3.2,2.2c1.2,0.5,2.5,0.8,3.9,0.8c1.4,0,2.7-0.3,3.9-0.8c1.2-0.5,2.3-1.3,3.2-2.2c0.9-0.9,1.6-2,2.2-3.3
			c0.5-1.2,0.8-2.6,0.8-4c0-1.4-0.3-2.7-0.8-4c-0.5-1.2-1.3-2.3-2.2-3.3c-0.9-0.9-2-1.7-3.2-2.2c-1.2-0.5-2.5-0.8-3.9-0.8
			c-1.4,0-2.7,0.3-3.9,0.8c-1.2,0.5-2.3,1.3-3.2,2.2c-0.9,0.9-1.6,2-2.2,3.3C39-63.4,38.7-62.1,38.7-60.7z"/>
		<path class="st0" d="M67.9-46.8v-27.9h7.6c1.5,0,2.8,0.2,4,0.6c1.2,0.4,2.3,1,3.2,1.7c0.9,0.8,1.6,1.7,2.1,2.8
			c0.5,1.1,0.7,2.3,0.7,3.8c0,0.8-0.1,1.5-0.2,2.3c-0.2,0.8-0.4,1.5-0.8,2.2c-0.3,0.7-0.8,1.4-1.3,2c-0.5,0.6-1.2,1.1-2,1.5
			c1,1.6,2.1,3.4,3.3,5.4c1.2,2,2.4,3.9,3.7,5.8h-5c-0.5-0.8-1-1.6-1.6-2.5c-0.6-0.9-1.1-1.7-1.7-2.6c-0.6-0.9-1.1-1.7-1.6-2.5
			c-0.5-0.8-1-1.6-1.5-2.3h-0.8h-3.9v10H67.9z M72.2-60.7H76c1,0,1.9-0.2,2.6-0.5s1.2-0.8,1.6-1.3c0.4-0.5,0.7-1.1,0.8-1.7
			c0.2-0.6,0.3-1.1,0.3-1.6s-0.1-1-0.3-1.6c-0.2-0.6-0.5-1.1-0.9-1.6c-0.4-0.5-1-0.9-1.6-1.2c-0.7-0.3-1.5-0.5-2.5-0.5h-3.8V-60.7z"
			/>
		<path class="st0" d="M89.7-60.7c0-1.9,0.4-3.7,1.1-5.5c0.7-1.7,1.8-3.3,3-4.6c1.3-1.3,2.8-2.3,4.5-3.1c1.7-0.8,3.6-1.1,5.5-1.1
			c1.9,0,3.8,0.4,5.5,1.1c1.7,0.8,3.2,1.8,4.6,3.1c1.3,1.3,2.3,2.8,3.1,4.6c0.8,1.7,1.1,3.6,1.1,5.5c0,2-0.3,3.8-1,5.5
			c-0.7,1.7-1.7,3.3-2.9,4.7l4.8-0.3v4c0,0-14.7,0.3-15.2,0.3c-2,0-3.8-0.4-5.5-1.1c-1.7-0.7-3.2-1.8-4.5-3.1
			c-1.3-1.3-2.3-2.8-3-4.5C90.1-56.9,89.7-58.7,89.7-60.7z M93.9-60.7c0,1.4,0.3,2.7,0.8,4c0.5,1.2,1.2,2.3,2.2,3.3
			c0.9,0.9,2,1.7,3.2,2.2c1.2,0.5,2.6,0.8,4,0.8c1.4,0,2.7-0.3,3.9-0.8c1.2-0.5,2.3-1.3,3.2-2.2c0.9-0.9,1.6-2,2.2-3.3
			c0.5-1.2,0.8-2.6,0.8-4c0-1.4-0.3-2.7-0.8-4c-0.5-1.2-1.3-2.3-2.2-3.3c-0.9-0.9-2-1.7-3.2-2.2c-1.2-0.5-2.5-0.8-3.9-0.8
			c-1.4,0-2.7,0.3-3.9,0.8c-1.2,0.5-2.3,1.3-3.2,2.2c-0.9,0.9-1.6,2-2.1,3.3C94.2-63.4,93.9-62.1,93.9-60.7z"/>
		<path class="st0" d="M121.3-60.7c0-1.9,0.4-3.7,1.1-5.5c0.7-1.7,1.8-3.3,3.1-4.6c1.3-1.3,2.8-2.3,4.5-3.1c1.7-0.8,3.6-1.1,5.5-1.1
			c1.9,0,3.8,0.4,5.5,1.1c1.7,0.8,3.2,1.8,4.5,3.1c1.3,1.3,2.3,2.8,3.1,4.6c0.8,1.7,1.1,3.6,1.1,5.5c0,2-0.4,3.8-1.1,5.5
			c-0.8,1.7-1.8,3.2-3.1,4.5c-1.3,1.3-2.8,2.3-4.5,3.1c-1.7,0.7-3.6,1.1-5.5,1.1c-2,0-3.8-0.4-5.5-1.1c-1.7-0.7-3.2-1.8-4.5-3.1
			c-1.3-1.3-2.3-2.8-3.1-4.5C121.7-56.9,121.3-58.7,121.3-60.7z M125.5-60.7c0,1.4,0.3,2.7,0.8,4c0.5,1.2,1.3,2.3,2.2,3.3
			c0.9,0.9,2,1.7,3.2,2.2c1.2,0.5,2.5,0.8,3.9,0.8c1.4,0,2.7-0.3,3.9-0.8c1.2-0.5,2.3-1.3,3.2-2.2c0.9-0.9,1.6-2,2.2-3.3
			c0.5-1.2,0.8-2.6,0.8-4c0-1.4-0.3-2.7-0.8-4c-0.5-1.2-1.3-2.3-2.2-3.3c-0.9-0.9-2-1.7-3.2-2.2c-1.2-0.5-2.5-0.8-3.9-0.8
			c-1.4,0-2.7,0.3-3.9,0.8c-1.2,0.5-2.3,1.3-3.2,2.2c-0.9,0.9-1.6,2-2.2,3.3C125.8-63.4,125.5-62.1,125.5-60.7z"/>
		<path class="st0" d="M179.2-74.7v29.2c-0.4-0.5-1.1-1.2-2.1-2.2c-1-1-2.2-2.2-3.5-3.5c-1.3-1.3-2.7-2.7-4.3-4.2
			c-1.5-1.5-2.9-2.9-4.3-4.2c-1.3-1.3-2.5-2.5-3.5-3.5c-1-1-1.7-1.8-2-2.2l-0.7-1l0.1,1.2v18.4h-4.2V-76c0.3,0.4,0.8,0.9,1.4,1.5
			c0.7,0.7,1.4,1.4,2.3,2.3c0.9,0.9,1.9,1.8,2.9,2.9c1.1,1,2.1,2.1,3.2,3.1c1.1,1.1,2.2,2.1,3.2,3.1c1.1,1,2,2,2.9,2.8
			c0.9,0.9,1.6,1.6,2.3,2.3c0.6,0.7,1.1,1.2,1.3,1.5l0.7,1.1l-0.1-1.3v-18H179.2z"/>
	</g>
</g>
<g>
	<path class="st0" d="M93.3-169.2c-1.4-2.5-2.8-5-4.2-7.4c-0.2-0.4-0.2-0.6,0.2-0.8c3.1-1.7,4.5-4.9,3.7-8.2
		c-0.8-3.2-3.6-5.3-7.1-5.3c-4.5,0-8.9,0-13.4,0c-0.2,0-0.6-0.2-0.8,0.2c0,7.4,0,14.8,0,22.2c0,0.4,0.2,0.5,0.5,0.5
		c1.1,0,2.1,0,3.2,0c0.5,0,0.7-0.1,0.7-0.7c0-2.6,0-5.3,0-7.9c0.1,0,0.1,0,0.1-0.1c2.2,0,4.3,0,6.5,0c1.3,0.2,2.1,1,2.6,2.1
		c0.9,1.8,1.9,3.5,2.9,5.2c0.4,0.7,0.8,1.2,1.7,1.3c1.2,0,2.4,0.1,3.7,0.1c0.6,0,0.3-0.3,0.1-0.5C93.5-168.7,93.4-169,93.3-169.2z
		 M87.1-180.5c-0.6,0.3-1.2,0.1-1.8,0.1c-2.9,0-5.8,0-8.6,0c-0.6,0-0.8-0.2-0.7-0.8c0-1.8,0-3.6,0-5.4c0-0.6,0.2-0.8,0.8-0.7
		c1.6,0,3.1,0,4.7,0c1.5,0,3,0,4.5,0c1.9,0,3.3,1.2,3.6,2.9C89.8-182.6,88.8-181.2,87.1-180.5z"/>
	<path class="st0" d="M105.9-187.3c4.7,0,9.4,0,14.2,0c0.2,0,0.5,0.1,0.5-0.3c0-1,0-1.9,0-2.9c0-0.4-0.1-0.5-0.5-0.5
		c-5.6,0-11.2,0-16.7,0c-1.1,0-1.7,0.6-1.9,1.7c0,6.9,0,13.8,0,20.7c0,0.6,0.2,0.6,0.7,0.6c6,0,11.9,0,17.9,0c0.2,0,0.5,0.2,0.6-0.2
		c0-1.1,0-2.2,0-3.3c-0.1-0.3-0.3-0.2-0.5-0.2c-4.7,0-9.5,0-14.2,0c-0.1-0.1-0.1-0.1-0.2-0.2c0-1.4,0-2.8,0-4.3
		c0.3-0.7,0.8-1.2,1.5-1.5c3,0,6,0,9,0c0.5,0,0.6-0.1,0.6-0.6c0-0.8,0-1.6,0-2.5c0-0.5-0.2-0.6-0.6-0.6c-3.4,0-6.9,0-10.3,0
		c-0.1-0.1-0.1-0.1-0.2-0.2c0-1.9,0-3.9,0-5.8C105.8-187.2,105.9-187.2,105.9-187.3z"/>
	<path class="st0" d="M147.6-190.9c-5.5,0-11,0-16.6,0c-1.7,0-2.3,0.7-2.3,2.3c0,6.6,0,13.2,0,19.8c0,0.2-0.2,0.6,0.2,0.8
		c1.2,0,2.4,0,3.6,0c0.4,0,0.5-0.1,0.5-0.5c0-2.5,0-4.9,0-7.4c0.3-0.8,0.7-1.3,1.5-1.7c0.4,0,0.7,0,1.1,0c2.9,0,5.9,0,8.8,0
		c0.4-0.6,0.1-1.3,0.2-2c0-0.5,0.2-1.1-0.2-1.6c-3.8,0-7.5,0-11.3,0c0-0.1-0.1-0.1-0.1-0.2c0-1.9,0-3.9,0-5.8c0,0,0.1-0.1,0.1-0.1
		c1.5,0,3.1,0,4.6,0c3.4,0,6.8,0,10.1,0c0.5,0.2,0.5-0.1,0.5-0.4c0-0.8,0-1.6,0-2.4C148.5-190.7,148.4-190.9,147.6-190.9z"/>
	<path class="st0" d="M49.2-190.9c-5.5,0-11,0-16.6,0c-1.7,0-2.3,0.7-2.3,2.3c0,6.6,0,13.2,0,19.8c0,0.2-0.2,0.6,0.2,0.8
		c1.2,0,2.4,0,3.7,0c0.6,0,0.5-0.3,0.5-0.6c0-2.4,0-4.8,0-7.3c0.2-0.8,0.7-1.3,1.5-1.7c0.4,0,0.7,0,1.1,0c2.9,0,5.9,0,8.8,0
		c0.4-0.6,0.1-1.3,0.2-2c0-0.5,0.2-1.1-0.2-1.6c-3.8,0-7.5,0-11.3,0c0-0.1-0.1-0.1-0.1-0.2c0-1.9,0-3.9,0-5.8c0,0,0.1-0.1,0.1-0.1
		c3.7,0,7.5,0,11.2,0c1.3,0,2.5,0,3.8-0.1c0.3-0.9,0-1.9,0.1-2.8C50.1-190.8,49.8-190.9,49.2-190.9z"/>
	<path class="st0" d="M197.2-190.9c-1.2,0-2.5,0-3.7,0c-0.5,0-0.8,0.2-1.1,0.6c-2.1,2.9-4.2,5.7-6.2,8.6c-0.4,0.6-0.6,0.8-1.1,0
		c-2-2.9-4.2-5.8-6.3-8.6c-0.2-0.3-0.3-0.6-0.7-0.6c-1.6,0-3.3,0-5.1,0c1,1.4,2,2.7,2.9,4c2.4,3.2,4.7,6.5,7.1,9.7
		c0,0.3,0.1,0.6,0.1,0.9c0,2.5,0,5,0,7.5c0,0.7,0.2,0.9,0.9,0.8c0.7-0.1,1.4,0,2-0.1c0.8-0.1,1.2-0.6,1.4-1.4c0-2.6,0-5.1,0-7.7
		c3.3-4.5,6.6-9,9.9-13.6C197.2-190.7,197.2-190.8,197.2-190.9z"/>
	<path class="st0" d="M62.3-179.5c0-3.6,0-7.1,0-10.7c0-0.6-0.1-0.8-0.7-0.8c-0.6,0.1-1.1,0-1.7,0c-1.2,0-1.9,0.7-1.9,1.9
		c0,6.8,0,13.6,0,20.5c0,0.5,0.2,0.6,0.6,0.5c1,0,2,0,3,0c0.6,0,0.8-0.1,0.8-0.8C62.3-172.3,62.3-175.9,62.3-179.5z"/>
	<path class="st0" d="M174.5-170.8c0.1-0.7-0.2-0.8-0.8-0.8c-4.4,0-8.8,0-13.2,0c0-1.5,0-3,0-4.4c0-4.7,0-9.4,0-14
		c0-0.3,0.2-0.8-0.3-0.8c-1.3,0-2.7-0.2-4,0.1c0,0.1,0,0.2,0,0.2c0,6.9,0,13.7,0,20.6c0,0.3-0.1,0.6,0.2,0.8c0,0.6,0.4,0.9,0.9,0.9
		c0.3,0.3,0.7,0.2,1,0.2c5.1,0,10.2,0,15.4,0c0.6,0,0.9-0.1,0.9-0.8C174.4-169.5,174.4-170.2,174.5-170.8z"/>
</g>
<g>
	<path class="st0" d="M300.6-176.5c-2.1,0-4.1,0-6.2,0c0-1.5,0-2.8,0-4.2c4.2,0,8.3,0,12.3,0c0.9,4.8-2,10.6-8.1,12.3
		c-6.1,1.7-12.3-1.9-13.9-8c-1.6-6.3,1.9-12.6,8-14.2c5.7-1.5,12.1,1.8,13.5,7.1c-1.9,0-3.8,0-5.7,0c-0.3,0-0.6-0.3-0.9-0.6
		c-2.1-1.8-4.7-2-6.9-0.7c-2.2,1.3-3.3,3.9-2.8,6.4c0.6,2.7,2.7,4.7,5.3,5C297.3-173.1,299.5-174.4,300.6-176.5z"/>
	<path class="st0" d="M426.4-168.4c-1.4,0-2.8,0.1-4.2,0c-0.3,0-0.7-0.4-0.9-0.8c-2.3-3.4-4.6-6.8-6.8-10.2c-0.2-0.4-0.5-0.7-1-1.3
		c0,0.7-0.1,1.1-0.1,1.4c0,3.3,0,6.6,0,9.9c0,0.8-0.2,1.1-1,1.1c-1.4-0.1-2.8,0-4.2,0c0-7.4,0-14.6,0-22c1.5,0,3,0,4.5,0
		c0.3,0,0.6,0.5,0.8,0.8c2.2,3.4,4.5,6.8,6.7,10.2c0.2,0.3,0.5,0.6,0.9,1.2c0-0.7,0.1-1.1,0.1-1.4c0-3.3,0-6.5,0-9.8
		c0-0.8,0.2-1.1,1-1.1c1.4,0.1,2.8,0,4.2,0C426.4-183.1,426.4-175.8,426.4-168.4z"/>
	<path class="st0" d="M336.6-168c-6.5,0-11.4-5-11.3-11.7c0-6.2,5.1-11.2,11.4-11.2c6.2,0,11.3,5.1,11.3,11.3
		C348-173.1,343-168,336.6-168z M342.5-179.7c0-3.3-2.6-5.9-5.8-5.9c-3.4,0-6,2.7-6,6c0.1,3.4,2.8,6.2,6,6.2
		C340-173.4,342.5-176.2,342.5-179.7z"/>
	<path class="st0" d="M395.4-168c-6.5,0-11.3-5.1-11.3-11.8c0.1-6.3,5.2-11.1,11.6-11.1c6.2,0,11.2,5.2,11.1,11.5
		C406.8-173,401.8-168,395.4-168z M395.6-185.5c-3.4,0-6.1,2.6-6,5.9c0,3.4,2.8,6.2,5.9,6.3c3.2,0,5.9-2.8,5.9-6.2
		C401.4-182.8,398.8-185.5,395.6-185.5z"/>
	<path class="st0" d="M319.3-176c1.8,2.5,3.5,4.9,5.3,7.5c-2.2,0-4.2,0-6.2,0c-0.3,0-0.6-0.5-0.8-0.8c-1.2-2-2.4-4-3.8-6
		c0,2.2,0,4.4,0,6.8c-1.7,0-3.3,0-4.9,0c-0.2,0-0.5-0.6-0.5-0.9c0-2.2,0-4.3,0-6.5c0-4.4,0-8.8,0-13.3c0-1,0.2-1.4,1.3-1.4
		c2.5,0.1,5,0,7.6,0.1c3.8,0.1,6.2,2.1,6.9,5.8c0.7,3.7-1,7-4.2,8.4C319.8-176.2,319.6-176.1,319.3-176z M313.8-180.2
		c1.3-0.2,2.5-0.2,3.6-0.5c1.1-0.3,1.5-1.2,1.5-2.4c0-1.1-0.4-2-1.5-2.3c-1.2-0.3-2.4-0.3-3.6-0.5
		C313.8-183.8,313.8-182.1,313.8-180.2z"/>
	<path class="st0" d="M360.4-190.5c1.7,0,3.2,0,4.7,0c0.2,0,0.6,0.4,0.6,0.7c0,5,0.1,10-0.2,15c-0.2,3.8-3.4,6.6-7.2,6.6
		c-1.4,0-3-0.1-4.3-0.6c-2.8-1-4.2-3.4-4.3-6.2c-0.2-4.9-0.1-9.8-0.1-14.7c0-0.3,0.4-0.7,0.6-0.8c1.5-0.1,3,0,4.6,0
		c0,0.5,0,0.9,0,1.3c0,4,0,8,0,12.1c0,0.7,0.1,1.3,0.2,2c0.3,1.4,1.1,2.1,2.4,2.1c1.5,0,2.4-0.6,2.7-2c0.2-0.7,0.2-1.4,0.2-2.2
		C360.4-181.6,360.4-185.9,360.4-190.5z"/>
	<path class="st0" d="M367.5-190.4c3.3,0,6.6-0.2,9.8,0c3.9,0.3,6.4,3.8,6,7.7c-0.5,4.5-3.1,6.9-7.6,7c-0.9,0-1.9,0-3,0
		c0,2-0.1,3.9,0,5.8c0.1,1.1-0.3,1.5-1.4,1.4c-1.3-0.1-2.5,0-3.9,0C367.5-175.8,367.5-183.1,367.5-190.4z M372.9-180.4
		c2.2,0.4,4-0.1,4.7-1.1c0.6-0.9,0.5-2.3-0.1-3.1c-0.7-0.9-2.9-1.4-4.6-0.9C372.9-183.8,372.9-182.1,372.9-180.4z"/>
</g>
<g>
	<path class="st0" d="M-203.2-36.3c-8.5-0.3-15.2-3.9-20-11c-2.1-3.2-3.4-6.7-3.8-10.5c-0.8-7.5,1.3-14.1,6.4-19.7
		c3.5-3.9,7.9-6.4,13.1-7.3c7.2-1.3,13.8,0.3,19.5,4.9c4.5,3.6,7.4,8.3,8.5,14c1.6,8.1-0.3,15.3-5.7,21.5c-3.7,4.2-8.4,6.7-13.9,7.7
		c-0.5,0.1-1.1,0.2-1.6,0.2c-0.7,0-1.5,0-2.2,0C-203.2-36.4-203.2-36.3-203.2-36.3z M-193.7-82.5c-1-0.3-2-0.2-3.1-0.1
		c-2.7,0.2-5.3,1-7.7,2.2c-4.3,2.1-7.6,5.1-9.9,9.3c-2,3.7-2.9,7.6-2.3,11.7c0.5,3.5,1.9,6.6,4.6,9c3.1,2.8,6.7,4,10.8,3.3
		c4.3-0.8,7.4-3.3,9.3-7.2c1.3-2.7,1.6-5.6,1-8.6c-0.4-2.1-1.3-4-2.8-5.6c-1.5-1.6-3.3-2.6-5.3-3.3c-0.7-0.2-1.4-0.4-2.1-0.7
		c-0.1-1.9,0.4-3.6,1.3-5.2C-198.6-80-196.5-81.7-193.7-82.5z"/>
	<path class="st0" d="M-122.1-69.1c0-2.3,0-4.5,0-6.8c1.5,0,2.9,0,4.4,0c0,8.3,0,16.5,0,24.7c-1.4,0-2.7,0-4,0
		c-0.1-0.4-0.1-0.8-0.2-1.3c-0.1,0.1-0.3,0.2-0.3,0.3c-1.1,1.1-2.5,1.5-4,1.4c-2.7-0.2-4.5-1.6-5.7-3.9c-1.1-2.1-1.4-4.3-1.2-6.6
		c0.1-1.5,0.5-3,1.3-4.3c1.2-2,3-3.3,5.3-3.8c1.3-0.2,2.6-0.1,3.9,0.2c0.1,0,0.3,0.1,0.5,0.1C-122.2-69.1-122.2-69.1-122.1-69.1z
		 M-122.1-65.2c-1.1-0.5-2.2-0.7-3.4-0.5c-1.3,0.3-2.2,1.1-2.8,2.3c-0.6,1.2-0.7,2.5-0.6,3.8c0.1,1.1,0.3,2.1,0.9,3.1
		c1.4,2.2,3.9,2.1,5.5,0.7c0.3-0.3,0.4-0.6,0.4-1c0-2.6,0-5.2,0-7.8C-122.1-64.8-122.1-65-122.1-65.2z"/>
	<path class="st0" d="M-31.7-59c-4,0-7.9,0-11.9,0c0.1,1.4,0.5,2.6,1.7,3.4c1.2,0.7,2.5,0.9,3.8,0.8c1.6-0.1,3.1-0.6,4.4-1.5
		c0.4,1.2,0.8,2.4,1.3,3.6c-0.5,0.2-0.9,0.5-1.4,0.7c-2.6,1-5.2,1.3-7.9,0.7c-3.8-0.7-5.9-3.6-6.4-6.7c-0.3-1.9-0.3-3.9,0.4-5.7
		c1.1-3.1,3.4-4.9,6.6-5.4c1.8-0.3,3.5-0.1,5.2,0.7c1.7,0.8,2.8,2.1,3.5,3.8c0.5,1.3,0.8,2.7,0.8,4.1C-31.6-60-31.7-59.5-31.7-59z
		 M-36.4-62.2c-0.1-1.3-0.6-2.3-1.6-3c-1.2-0.8-2.5-0.6-3.7,0.1c-1.1,0.7-1.6,1.6-1.7,2.9C-41.1-62.2-38.8-62.2-36.4-62.2z"/>
	<path class="st0" d="M-66.7-68.9c1.3,0,2.6,0,4,0c0.1,0.4,0.2,0.9,0.2,1.3c0.2-0.1,0.3-0.2,0.4-0.3c1.3-1,2.8-1.5,4.5-1.5
		c1.5,0,3,0.3,4.2,1.3c1,0.8,1.5,1.9,1.8,3.1c0.3,1.1,0.4,2.2,0.4,3.3c0,3.4,0,6.9,0,10.3c0,0.1,0,0.2,0,0.4c-0.4,0.1-3.8,0.1-4.5,0
		c0-0.2,0-0.4,0-0.6c0-3.2,0-6.4,0-9.6c0-0.6-0.1-1.2-0.2-1.8c0-0.1,0-0.2-0.1-0.3c-0.7-2.5-2.9-2.8-4.5-2c-0.6,0.3-1.2,0.8-1.8,1.2
		c-0.2,0.2-0.2,0.4-0.2,0.6c0,1.4,0,2.8,0,4.3c0,2.5,0,5,0,7.5c0,0.2,0,0.4,0,0.6c-1.5,0-2.9,0-4.4,0c0,0,0,0,0,0c0,0,0,0,0,0
		c0-0.1,0-0.1,0-0.2c0-5.8,0-11.7,0-17.5C-66.7-68.7-66.7-68.8-66.7-68.9z"/>
	<path class="st0" d="M-77.7-50.9c-3.8,0-6.7-2-7.9-5.5c-1-2.7-0.9-5.4,0.2-8.1c1.1-2.6,3.1-4.3,5.9-4.7c2.7-0.4,5.1,0,7.2,1.9
		c1.2,1.1,2,2.4,2.5,4c0.8,2.5,0.7,5.1-0.4,7.5c-1.2,2.7-3.1,4.4-6.1,4.9c-0.1,0-0.2,0-0.4,0C-77.1-50.9-77.5-50.9-77.7-50.9z
		 M-73.8-60.2c0-1-0.1-2-0.5-2.9c-0.4-1-1-1.8-2-2.2c-1.8-0.8-3.8-0.1-4.8,1.7c-0.4,0.8-0.6,1.6-0.7,2.5c-0.1,1.5,0,2.9,0.7,4.2
		c0.4,0.8,1.1,1.5,2,1.8c1.7,0.6,3.5-0.1,4.4-1.7C-74-57.8-73.8-58.9-73.8-60.2z"/>
	<path class="st0" d="M-143.1-50.9c-2.7,0-4.9-1-6.5-3.2c-1-1.3-1.6-2.9-1.8-4.5c-0.3-2.4,0-4.7,1.2-6.8c1.4-2.4,3.4-3.7,6.2-3.9
		c1.5-0.1,3,0,4.4,0.6c1.9,0.9,3.3,2.3,4.1,4.3c1.3,3.3,1.2,6.5-0.5,9.6c-1.4,2.4-3.5,3.7-6.3,4c-0.2,0-0.4,0-0.6,0
		C-143-50.9-143.1-50.9-143.1-50.9z M-139.1-60.2c0-1.1-0.2-2.1-0.6-3c-0.8-1.9-2.8-2.9-4.7-2.1c-1.1,0.4-1.8,1.2-2.2,2.3
		c-0.3,0.8-0.5,1.6-0.5,2.5c-0.1,1.3,0.1,2.7,0.8,3.9c0.7,1.2,1.7,1.9,3.1,2c1.4,0,2.5-0.6,3.2-1.8
		C-139.3-57.7-139.1-58.9-139.1-60.2z"/>
	<path class="st0" d="M-99.4-51.3c-1.4,0-2.7,0-4,0c-0.1-0.4-0.1-0.8-0.2-1.2c-0.2,0.2-0.3,0.3-0.4,0.4c-2.3,2-6.6,1.8-8.6-1.1
		c-1.3-1.8-1.4-4.9,0.4-6.8c0.7-0.7,1.5-1.2,2.5-1.6c1.3-0.5,2.7-0.8,4.1-0.9c0.6-0.1,1.2-0.1,1.8-0.2c0.3-1.5-0.6-2.8-2.1-3
		c-1.4-0.2-2.7,0.2-3.9,0.9c-0.3,0.2-0.7,0.4-1.1,0.7c-0.5-1-1-2.1-1.4-3.1c0.5-0.5,1-0.8,1.6-1c1.5-0.7,3.1-1.1,4.7-1.2
		c1.3,0,2.6,0.1,3.7,0.7c1.7,0.9,2.6,2.4,2.9,4.2c0.1,0.7,0.1,1.4,0.1,2.1c0,3.5,0,7,0,10.5C-99.4-51.7-99.4-51.5-99.4-51.3z
		 M-103.8-59.6c-0.9,0.1-1.6,0.2-2.4,0.3c-0.6,0.1-1.3,0.3-1.9,0.6c-0.7,0.3-1.1,0.9-1.2,1.7c-0.2,1.2,0.4,2.1,1.5,2.3
		c1.4,0.3,2.7-0.2,3.8-1c0.2-0.1,0.2-0.3,0.2-0.5c0-0.6,0-1.3,0-1.9C-103.8-58.6-103.8-59.1-103.8-59.6z"/>
	<path class="st0" d="M-94.5-50.9c0-4.7,0-9.4,0-14.1c-0.8,0-1.5,0-2.2,0c0-1.3,0-2.4,0-3.7c0.7,0,1.4,0,2.2,0c0-0.3,0-0.5,0-0.7
		c0-0.9,0.1-1.8,0.3-2.7c0.6-2.3,2.3-3.7,4.6-3.9c1.7-0.1,3.2,0.1,4.5,0.7c-0.1,1.2-0.3,2.5-0.5,3.7c-0.7-0.1-1.3-0.3-1.9-0.4
		c-0.5-0.1-1,0-1.4,0.1c-0.7,0.3-1.1,0.8-1.2,1.5c-0.1,0.5-0.1,1.1-0.1,1.6c0.7,0.1,1.3,0,1.9,0c0.6,0,1.2,0,1.8,0
		c0,1.2,0,2.4,0,3.7c-1.2,0-2.4,0-3.6,0c0,0.3,0,0.5,0,0.7c0,4.2,0,8.5,0,12.7c0,0.2,0,0.4,0,0.7C-91.6-50.9-93-50.9-94.5-50.9z"/>
	<path class="st0" d="M-171.1-68c1.6,0,3.1,0,4.7,0c1.5,3.8,3,7.5,4.5,11.3c0,0,0.1,0,0.1,0c1.4-3.8,2.9-7.5,4.4-11.3
		c1.5,0,3,0,4.5,0c0,0.1-0.1,0.3-0.1,0.4c-2,4.8-3.9,9.6-5.9,14.3c-0.3,0.7-0.6,1.4-0.9,2.1c-0.1,0.2-0.2,0.3-0.5,0.3
		c-1,0-2.1,0-3.1,0c-0.3,0-0.4-0.1-0.6-0.4c-1.7-4-3.4-8-5.1-11.9c-0.6-1.4-1.2-2.9-1.8-4.3C-171-67.7-171-67.8-171.1-68z"/>
</g>
<g>
	<path class="st0" d="M310.6-44.6c-2.1,0.4-4.2,0.9-6.4,1.3c-0.2,0-0.4,0.1-0.6,0c-3.3-1.8-6.8-0.6-10.2-1c-0.6-0.1-1.4-0.6-1.5-1.1
		c-0.7-4.4-3.7-7.3-6.9-9.8c-2.1-1.6-2.4-3.6-2.4-5.9c0.1-11.9,10.4-21.7,22.1-21c12.4,0.7,21.6,11.1,20.4,23.2
		c-0.1,1.1-0.8,2.1-1.5,3c-0.6,0.9-1.5,1.6-2.4,2.3c-2.5,1.9-4.1,4.3-4.7,7.4c-0.3,1.6-1.2,2.1-2.8,1.9c-1-0.1-2.1,0-3.1,0
		C310.6-44.3,310.6-44.4,310.6-44.6z M286.8-65.6c-0.7,4.1-1.3,7.6,2.4,10.2c2.4,1.7,4.4,4,4.8,7.1c0.2,1.1,1,1.5,2,1.3
		c3.5-0.5,6.9,0.7,10.5,0.1c2-0.4,4.2,0,6.3-0.1c0.7,0,1.7-0.7,1.8-1.2c0.6-3.4,3-5.5,5.4-7.7c2.6-2.4,3.1-5.6,1.5-9.2
		c-3.3,3.5-6.5,6.8-9.7,10.2c0-0.8,0.3-1.2,0.7-1.7c2.4-3.5,4.9-7,7.3-10.5c0.4-0.5,0.7-1.4,0.5-1.9c-0.6-1.3-1.5-2.4-2.5-3.9
		c-2.9,5.4-5.6,10.4-8.2,15.4c-0.3-0.6-0.1-1,0-1.4c1.8-4.6,3.5-9.2,5.4-13.7c0.7-1.7,0.5-2.7-1.2-3.4c-0.6-0.3-1.3-0.6-2.1-1
		c-1.8,6.9-3.6,13.5-5.3,20.1c-0.1-0.9,0-1.8,0.1-2.7c0.8-5.5,1.6-11,2.6-16.5c0.2-1.4-0.1-2.1-1.5-2.3c-0.6-0.1-1.3-0.2-2.1-0.4
		c-0.4,7.2-0.7,14.3-1.1,21.3c-0.6-6.5-0.9-13.1-1.2-19.6c0-1-0.1-2-1.6-1.7c-1.2,0.3-2.5,0.2-2.1,2.2c0.8,4.3,1.3,8.5,1.9,12.8
		c0.3,2,0.6,4,0.9,6c-0.1,0-0.2,0-0.4,0.1c-1.7-6.5-3.3-13-5-19.6c-0.7,0.3-1.2,0.4-1.5,0.6c-2.7,1.4-2.7,1.5-1.6,4.3
		c1.8,4.4,3.5,8.9,5.3,13.3c0.3,0.7,0.6,1.4,0.8,2.2c-0.1,0-0.2,0.1-0.3,0.1c-2.9-5.3-5.7-10.7-8.7-16.2c-0.7,1-1.2,1.7-1.7,2.3
		c-1.2,1.5-1.2,2.7,0.1,4.3c1.8,2.1,3.3,4.4,4.9,6.6c1,1.4,2,2.8,3,4.2c-0.1,0.1-0.2,0.1-0.3,0.2C293.4-58.6,290.2-61.9,286.8-65.6z
		"/>
	<path class="st0" d="M328.7-53.7c2.5,0,5.1,0,7.6,0c0.4,0,0.9,0.6,1.2,1.1c1.6,2.6,6.5,3.3,8.7,1.3c1-0.9,1.1-1.9,0-2.6
		c-1-0.6-2.3-0.8-3.5-1.2c-3.2-0.9-6.6-1.4-9.5-2.8c-6.6-3.2-5-11-0.2-13.8c5.5-3.2,11.2-3.1,16.7-0.3c2.2,1.1,3.6,3.2,4.4,5.6
		c0.2,0.6,0.2,1.2,0.4,2.2c-2.8,0-5.3,0-7.8-0.1c-0.4,0-0.9-0.7-1.1-1.1c-1.4-2.3-4.3-3.1-6.7-1.9c-1.5,0.8-1.7,2.4-0.2,3.3
		c0.9,0.6,2,0.9,3.1,1.1c2.2,0.5,4.5,0.9,6.7,1.5c4.4,1.1,6.8,3.7,7.1,7.4c0.3,3.7-2.2,7.6-6.1,8.9c-4.8,1.6-9.7,1.7-14.5,0
		C331-46.4,328.7-49.8,328.7-53.7z"/>
	<path class="st0" d="M358.6-72.9c2.7,0,5.3,0,8.2,0c0,3.2,0,6.4,0,9.9c0.9-0.5,1.3-0.7,1.8-1c2.6-1.5,5.4-1.9,8.4-1.2
		c3,0.8,5.2,2.7,5.4,5.8c0.3,4.9,0.1,9.8,0.1,14.8c-2.7,0-5.4,0-8.3,0c0-3.8,0-7.5,0-11.3c0-2-1.1-3.2-2.9-3.7
		c-1.8-0.5-3.2,0.2-4,1.7c-0.4,0.7-0.6,1.7-0.6,2.6c-0.1,3.5,0,6.9,0,10.6c-2.7,0-5.3,0-8.1,0C358.6-53.9,358.6-63.3,358.6-72.9z"/>
	<path class="st0" d="M393.7-52.6c-0.1,2.1,0.9,3.2,2.3,4c1.6,0.9,3.5,1,4.8-0.3c1.4-1.6,3-1.5,4.8-1.5c1.4,0,2.7,0,4.7,0
		c-0.8,1.3-1.3,2.3-2,3.1c-4.8,5.2-15.3,5.2-20.1-0.1c-4.9-5.3-3.1-13.8,3.6-16.7c4-1.8,8.2-1.7,12.2,0c4,1.7,6.6,5.8,6.4,10.2
		c0,1.2-0.6,1.4-1.6,1.4c-4.3,0-8.6,0-13,0C395.2-52.6,394.5-52.6,393.7-52.6z M393.6-56.8c2.9,0,5.7,0,8.4,0
		c-0.2-2.3-1.6-3.8-3.6-4C396.2-61,394.3-59.5,393.6-56.8z"/>
	<path class="st0" d="M434.8-44.4c-2.5,0-4.9,0-7.3,0c-1.4,0-1.1-1-1.1-1.8c0-7.6,0-15.2,0-22.7c0-1.2,0-2.5,0-3.8
		c2.9,0,5.6,0,8.5,0C434.8-63.4,434.8-54,434.8-44.4z"/>
	<path class="st0" d="M421.8-73c0,9.6,0,19,0,28.6c-2.5,0-4.9,0.1-7.3-0.1c-0.4,0-1-0.8-1-1.2c-0.1-8.6-0.1-17.3,0-25.9
		c0-0.4,0.7-1.2,1.2-1.3C416.9-73,419.2-73,421.8-73z"/>
</g>
<g>
	<path class="st0" d="M-61.7,27.3C-61.7,27.2-61.7,27.2-61.7,27.3c-1,0.1-2,0.2-3.1,0.3c-5.6,0.9-11.3,1.8-16.9,2.7
		c-2.2,0.4-4.5,0.6-6.7,1.2c-3.1,0.8-4.8,3.5-4.4,6.7c0.3,2,0.6,4.1,0.9,6.1c0.2,1,0.2,1.1,1.2,0.9c1.5-0.2,3.1-0.5,4.6-0.7
		c4-0.6,8.1-1.3,12.1-1.9c3-0.5,6-0.9,9-1.4c1.9-0.3,3.9-0.6,5.8-0.9c0.5-0.1,0.8-0.3,0.6-0.9c-0.1-0.5-0.2-1-0.3-1.6
		c-0.5-3.2-1-6.4-1.5-9.6c-0.1-0.7-0.3-1.1-1.1-0.9C-61.5,27.3-61.6,27.3-61.7,27.3z M-52.6,70.1c0-9,0-17.9,0-26.8
		c-1.2,0-2.3,0-3.5,0c0,9,0,17.9,0,26.8C-55,70.1-53.8,70.1-52.6,70.1z"/>
	<path class="st0" d="M-61.7,27.3c0.1,0,0.2,0,0.3,0c0.8-0.2,1,0.2,1.1,0.9c0.5,3.2,1,6.4,1.5,9.6c0.1,0.5,0.1,1.1,0.3,1.6
		c0.2,0.6-0.1,0.8-0.6,0.9c-1.9,0.3-3.9,0.6-5.8,0.9c-3,0.5-6,0.9-9,1.4c-4,0.6-8.1,1.3-12.1,1.9c-1.5,0.2-3.1,0.5-4.6,0.7
		c-1,0.2-1.1,0.1-1.2-0.9c-0.3-2-0.6-4.1-0.9-6.1c-0.4-3.2,1.3-5.9,4.4-6.7c2.2-0.6,4.5-0.8,6.7-1.2c5.6-0.9,11.3-1.8,16.9-2.7
		C-63.8,27.4-62.8,27.3-61.7,27.3C-61.7,27.2-61.7,27.2-61.7,27.3z M-73.3,32.5c0,0.5,0,0.8,0.1,1.1c0.3,1.7,0.6,3.3,0.8,5
		c0.1,0.6,0.3,0.6,0.8,0.6c0.5-0.1,0.7-0.3,0.6-0.8c-0.2-1.1-0.4-2.2-0.5-3.3c-0.1-1.1,0.5-1.8,1.5-1.8c0.8,0,1.2,0.4,1.3,1.1
		c0.2,1.2,0.4,2.4,0.6,3.6c0.1,0.6,0.5,0.5,0.9,0.5c0.5-0.1,0.5-0.3,0.4-0.7c-0.2-1.2-0.4-2.5-0.5-3.7c-0.1-0.8,0.5-1.4,1.3-1.4
		c0.8-0.1,1.4,0.4,1.6,1.4c0.2,0.9,0.3,1.9,0.5,2.8c0.2,1.2,0.3,1.3,1.6,0.7c-0.3-1.5-0.5-3.1-0.9-4.7c-0.3-1.1-1.3-1.6-2.5-1.6
		c-1,0.1-1.8,0.4-2.4,1.3c-1.6-0.9-2.5-0.8-3.6,0.1C-72.4,32.6-72.8,32.6-73.3,32.5z M-77.2,33.2c-2,0-3.7,1.5-3.7,3.5
		c0,1.9,1.6,3.5,3.5,3.6c2,0,3.6-1.6,3.6-3.5C-73.6,34.7-75.1,33.2-77.2,33.2z M-81.7,36.3c-0.5-1.4-2.3-2.2-3.8-1.8
		c-1.8,0.5-2.8,2.2-2.5,4.2c0.3,1.7,2,2.9,3.6,2.7c1.7-0.2,3.1-1.5,3-2.9c-0.6,0-1.2-0.1-1.5,0.6c-0.5,0.9-1.4,1.2-2.3,1
		c-1-0.3-1.6-1.2-1.5-2.4c0-1,0.7-1.8,1.6-1.9c0.5,0,1.2,0.1,1.6,0.4C-83,36.7-82.4,36.5-81.7,36.3z M-89.1,42.3c0.5,0,1-0.5,1-1
		c0-0.6-0.4-1-1-1c-0.6,0-1.1,0.5-1,1.1C-90.1,41.9-89.6,42.3-89.1,42.3z"/>
	<path class="st0" d="M-106.7,52.4c0-3.1,0-6.1,0-9.1c1.3,0,2.5,0,3.8,0c0,8.9,0,17.9,0,26.8c-1.1,0-2.2,0-3.4,0c0-0.9,0-1.7,0-2.6
		c0,0-0.1-0.1-0.1-0.1c-2.1,2.6-4.9,3.5-8.1,3.2c-3.2-0.3-5.8-1.7-7.7-4.3c-3.1-4.4-2.2-10.9,1.8-14.4
		C-116.9,48.8-110.4,48.3-106.7,52.4z M-120.3,60.1c0,3.9,3.1,7.1,6.8,7.1c3.9,0,7-3.1,7-7c0-4.1-3-7.2-7-7.2
		C-117.3,52.9-120.3,56-120.3,60.1z"/>
	<path class="st0" d="M-147.1,61.7c-5.5,0-11,0-16.5,0c0.3,2.7,3.1,5.3,6,5.4c2,0.1,3.7-0.5,5.1-1.8c0.2-0.2,0.5-0.3,0.7-0.3
		c1.2,0,2.4,0,3.6,0c-0.7,3.5-6.5,6.3-10.9,5.4c-5.6-1.1-9.3-6.9-8.1-12.8c1.2-5.7,6.6-9.2,12.3-8
		C-149.7,50.8-146.1,55.9-147.1,61.7z M-150.7,58.7c-0.1-3.3-3.5-6.1-6.9-5.8c-3.2,0.3-6.3,3.2-5.9,5.8
		C-159.3,58.7-155,58.7-150.7,58.7z"/>
	<path class="st0" d="M-70.1,49.4c6,0,10.9,4.7,10.9,10.5c0,5.9-4.8,10.6-10.8,10.7c-6,0-10.9-4.7-10.9-10.7
		C-81,54.1-76.1,49.5-70.1,49.4z M-70.1,67.1c3.9,0,7.1-3.2,7.1-7.2c0-3.9-3.2-7-7.1-7c-3.9,0-7.1,3.2-7.1,7.1
		C-77.2,64-74,67.2-70.1,67.1z"/>
	<path class="st0" d="M-140.9,50c0,0.7,0,1.3,0,2c0.2-0.1,0.3-0.2,0.4-0.3c2.5-2.6,5.6-2.8,8.8-1.7c3.1,1,4.9,3.4,5.1,6.6
		c0.2,4.4,0.1,8.8,0.1,13.2c0,0.1,0,0.1-0.1,0.3c-1.2,0-2.4,0-3.7,0c0-0.3,0-0.6,0-0.8c0-3.5,0.1-6.9,0-10.4c0-1.2-0.3-2.3-0.6-3.4
		c-0.4-1.2-1.4-2-2.7-2.3c-3.8-1-6.9,1.4-6.9,5.7c0,3.5,0,6.9,0,10.4c0,0.3,0,0.6,0,0.9c-1.3,0-2.5,0-3.7,0c0-6.7,0-13.4,0-20.1
		C-143.2,50-142.1,50-140.9,50z"/>
	<path class="st0" d="M-91,65.5c1.4-3.6,2.7-6.9,4-10.3c0.6-1.6,1.2-3.1,1.8-4.7c0.2-0.4,0.4-0.6,0.8-0.6c1.1,0,2.2,0,3.5,0
		c-0.1,0.3-0.2,0.6-0.3,0.8c-3.5,8.5-7,16.9-10.5,25.4c-0.2,0.6-0.5,0.7-1.1,0.7c-1,0-2,0-3.1,0c0.1-0.3,0.2-0.5,0.3-0.7
		c0.8-1.9,1.6-3.8,2.4-5.8c0.1-0.3,0.1-0.8,0-1.2c-2.5-6.1-4.9-12.2-7.4-18.2c-0.1-0.3-0.2-0.6-0.3-0.9c1.3,0,2.5,0,3.7,0
		c0.2,0,0.5,0.4,0.6,0.6c1.8,4.6,3.5,9.2,5.2,13.8C-91.3,64.7-91.2,65-91,65.5z"/>
	<path class="st0" d="M-196.2,53.6c-1.1,0-2,0-3.1,0c0-1.2,0-2.3,0-3.5c1,0,2.1,0,3.2,0c0-2.2,0-4.3,0-6.4c1.3,0,2.5,0,3.8,0
		c0,2.1,0,4.2,0,6.4c2.1,0,4.2,0,6.3,0c0,1.2,0,2.3,0,3.5c-2.1,0-4.1,0-6.2,0c0,0.3-0.1,0.4-0.1,0.6c0,3.1,0,6.3,0,9.4
		c0,0.4,0.1,0.8,0.1,1.1c0.3,1.4,1.2,2.2,2.6,2.1c1.2-0.1,2.4-0.5,3.6-0.8c0.3-0.1,0.6-0.3,1.1-0.5c0,1.2,0,2.3,0,3.4
		c0,0.1-0.2,0.3-0.3,0.4c-2.5,1.2-5,1.6-7.6,0.5c-1.9-0.8-3.1-2.3-3.1-4.3c-0.1-3.2-0.1-6.5-0.2-9.7
		C-196.2,55-196.2,54.3-196.2,53.6z"/>
	<path class="st0" d="M-169.2,55.2c-0.7-0.5-1.3-1-1.9-1.3c-1.8-1-3.6-0.6-4.9,0.9c-1.2,1.3-1.8,2.9-1.8,4.7c0,3.2,0,6.4,0,9.6
		c0,0.3,0,0.5,0,0.9c-1.3,0-2.6,0-3.9,0c0-6.6,0-13.2,0-19.9c1.3,0,2.5,0,3.9,0c0,0.8,0,1.5,0,2.5c0.2-0.2,0.3-0.3,0.3-0.4
		c2.3-3.5,7.1-3.1,10-0.5c0.1,0.1,0.2,0.4,0.1,0.6C-167.9,53.2-168.6,54.2-169.2,55.2z"/>
	<path class="st0" d="M-52.6,70.1c-1.2,0-2.3,0-3.5,0c0-9,0-17.9,0-26.8c1.2,0,2.3,0,3.5,0C-52.6,52.2-52.6,61.1-52.6,70.1z"/>
	<path class="st0" d="M-75,36.7c0,1.2-1.1,2.3-2.3,2.2c-1.2,0-2.2-1.1-2.2-2.3c0-1.2,1-2.2,2.2-2.2C-76,34.4-75,35.5-75,36.7z"/>
</g>
<g>
	<path class="st0" d="M44.6,15.6c7.4,12.3,14.9,24.6,22.4,37c-0.4,0.3-0.7,0.5-1,0.6c-6.9,4-13.7,8.1-20.6,12.1
		c-0.6,0.3-1,0.6-1.7,0.2c-7.1-4.2-14.1-8.3-21.2-12.5c-0.1-0.1-0.2-0.2-0.5-0.4c0.5-0.3,0.9-0.6,1.3-0.7c6.4-2.9,12.9-5.9,19.3-8.7
		c1.2-0.5,1.7-1.2,1.6-2.5c-0.1-7.8,0-15.6,0-23.4c0-0.5,0-1,0-1.5C44.3,15.7,44.5,15.7,44.6,15.6z"/>
	<path class="st0" d="M44.3,88.3c0-0.4-0.1-0.7-0.1-1.1c0-5.3,0-10.5,0-15.8c0-0.5,0.4-1.2,0.8-1.5c7-4.2,14-8.3,21-12.4
		c0.2-0.1,0.3-0.2,0.6-0.1c-7.3,10.3-14.7,20.6-22,31C44.5,88.3,44.4,88.3,44.3,88.3z"/>
	<path class="st0" d="M191.8,50.5c3.7-3.3,5.8-3.1,8.9,0.7c0.2-0.3,0.4-0.7,0.7-1c1.3-1.6,2.9-2.4,5-1.9c2,0.4,3.3,1.8,3.6,3.8
		c0.3,2.6,0.2,5.3,0.2,8c0,0.2-0.3,0.5-0.5,0.7c-0.2-0.3-0.5-0.5-0.5-0.8c0-2,0-4.1,0-6.1c0-0.8-0.2-1.7-0.5-2.5
		c-1.1-2.5-4.4-3-6-0.9c-0.8,1.1-1.3,2.6-1.5,4c-0.3,1.7-0.1,3.4-0.1,5.2c0,0.4-0.2,0.8-0.3,1.2c-0.2,0-0.3,0-0.5,0
		c-0.1-0.4-0.3-0.8-0.3-1.2c0-2.2,0-4.5-0.1-6.7c-0.1-1.7-1.2-3.2-2.6-3.6c-1.6-0.5-3.6,0-4.4,1.4c-0.6,0.9-0.9,2.1-1,3.2
		c-0.2,1.8-0.1,3.6-0.1,5.4c0,0.3,0.1,0.6,0,0.8c-0.1,0.2-0.3,0.4-0.5,0.6c-0.2-0.2-0.4-0.3-0.5-0.6c-0.1-0.2,0-0.5,0-0.8
		c0-3.2,0-6.4,0-9.5c0-0.3-0.1-0.6,0-0.8c0.1-0.2,0.3-0.4,0.5-0.6c0.2,0.2,0.5,0.3,0.5,0.5C191.9,49.4,191.8,49.8,191.8,50.5z"/>
	<path class="st0" d="M155.9,55.1c0.3,2.2,1.2,3.7,3.1,4.6c1.7,0.8,4,0.4,5.4-0.9c0.2-0.2,0.4-0.5,0.6-0.7c0.2-0.2,0.6-0.3,0.8-0.4
		c0,0.3,0.1,0.8-0.1,1c-1.2,1.7-3,2.4-5,2.3c-2.5-0.1-4.3-1.4-5.3-3.7c-1.1-2.6-0.7-5.1,1.2-7.2c1.6-1.8,3.7-2.3,6-1.6
		c2.3,0.7,4.1,3.1,4.3,5.6c0.1,1-0.4,1.1-1.2,1.1c-2.8,0-5.6,0-8.4,0C156.9,55.1,156.5,55.1,155.9,55.1z M165.7,54
		c-0.1-2.8-2.5-5.1-5.1-4.9c-2.5,0.2-4.8,2.6-4.5,4.9C159.3,54,162.4,54,165.7,54z"/>
	<path class="st0" d="M77.4,55.1c0.4,2.3,1.4,3.9,3.4,4.7c1.8,0.7,4,0.2,5.4-1.3c0.3-0.3,0.8-0.5,1.2-0.7c-0.2,0.5-0.3,1.1-0.6,1.5
		c-1.6,1.7-4.4,2.3-6.6,1.4c-2.3-1-3.9-3.5-3.8-6.2c0.1-3.2,2.5-6,5.5-6.2c3.1-0.2,5.8,1.9,6.4,5.2c0.3,1.5,0.1,1.7-1.4,1.7
		C83.8,55.1,80.7,55.1,77.4,55.1z M87.2,54c0-2.8-2.5-5.1-5-4.9c-2.5,0.2-4.8,2.6-4.5,4.9C80.7,54,83.9,54,87.2,54z"/>
	<path class="st0" d="M125.9,55.1c0.4,2.4,1.5,4.1,3.6,4.8c2,0.6,3.9,0.1,5.3-1.5c0.2-0.3,0.7-0.4,1-0.6c-0.1,0.4-0.1,1-0.3,1.3
		c-2.2,2.7-6.7,2.7-9,0c-1.7-2-2.1-5.1-0.9-7.5c1.1-2.3,3.3-3.5,5.7-3.4c2.9,0.2,5.6,3.1,5.6,6c0,0.9-0.6,0.9-1.2,0.9
		c-2.8,0-5.6,0-8.4,0C126.9,55.1,126.5,55.1,125.9,55.1z M126,54c3.2,0,6.5,0,9.7,0c-0.2-2.7-2.4-4.9-4.9-4.9
		C128.3,49.1,126.2,51.3,126,54z"/>
	<path class="st0" d="M109.2,50.4c0.2-0.2,0.3-0.3,0.5-0.5c1.4-1.5,3.1-2.1,5.1-1.5c2,0.7,3.1,2.2,3.2,4.2c0.2,2.4,0.1,4.9,0.1,7.3
		c0,0.3-0.3,0.5-0.5,0.8c-0.2-0.3-0.4-0.5-0.4-0.8c0-2.2,0-4.5-0.1-6.7c-0.1-2.2-1.5-3.8-3.4-4c-2-0.2-3.8,0.9-4.5,3
		c-0.3,0.8-0.3,1.8-0.4,2.7c0,1.6,0,3.2,0,4.8c0,0.4-0.3,0.7-0.4,1.1c-0.2-0.3-0.5-0.7-0.5-1c0-6.9,0-13.7,0-20.6
		c0-0.4,0.3-0.7,0.4-1.1c0.2,0.4,0.5,0.7,0.5,1.1c0,3.3,0,6.6,0,9.9c0,0.4,0,0.8,0,1.2C109,50.3,109.1,50.4,109.2,50.4z"/>
	<path class="st0" d="M182.7,58.4c-1.1,1.5-2.2,2.5-3.8,2.7c-3,0.3-5.3-1.8-5.4-5.2c-0.1-2.1,0-4.2,0-6.4c0-0.3,0.3-0.7,0.5-1
		c0.2,0.3,0.4,0.6,0.4,1c0,2,0,4,0,6c0,0.8,0.2,1.6,0.5,2.4c0.5,1.4,1.7,2.2,3.2,2.2c1.6,0.1,2.9-0.5,3.5-2c0.5-1.2,0.8-2.5,0.9-3.7
		c0.2-1.6,0-3.3,0.1-4.9c0-0.3,0.3-0.6,0.5-0.9c0.2,0.3,0.4,0.6,0.4,0.8c0,3.5,0,7.1,0,10.6c0,0.3-0.3,0.6-0.4,0.8
		c-0.2-0.3-0.4-0.6-0.5-0.9C182.7,59.5,182.7,59.1,182.7,58.4z"/>
	<path class="st0" d="M98.2,48.4c1,0,1.7,0,2.5,0c0.3,0,0.5,0.3,0.7,0.5c-0.2,0.1-0.5,0.4-0.7,0.4c-0.8,0.1-1.6,0-2.5,0
		c0,0.5-0.1,0.9-0.1,1.4c0,3,0,6,0,9.1c0,0.3-0.3,0.7-0.5,1c-0.2-0.3-0.4-0.7-0.4-1c0-3-0.1-6,0-9.1c0-1.1-0.4-1.5-1.4-1.3
		c-0.4,0-0.8,0.1-1.2,0c-0.2-0.1-0.4-0.3-0.7-0.5c0.2-0.1,0.4-0.4,0.6-0.4c0.6-0.1,1.2-0.1,1.8,0c0.6,0,0.8-0.2,0.8-0.8
		c0-0.9,0-1.7,0-2.6c0-0.4,0.3-0.7,0.4-1.1c0.2,0.4,0.5,0.7,0.5,1.1C98.3,46.1,98.2,47.2,98.2,48.4z"/>
	<path class="st0" d="M145.1,50.9c0.3-0.4,0.6-0.9,1-1.1c0.9-0.5,1.9-0.9,2.8-1.3c0.2-0.1,0.5,0.2,0.8,0.3c-0.2,0.2-0.4,0.6-0.6,0.6
		c-3.2,0.6-4.4,3.5-4.3,6.3c0,1.4,0,2.8,0,4.2c0,0.3-0.3,0.5-0.5,0.8c-0.2-0.3-0.4-0.5-0.4-0.8c0-3.5,0-7.1,0-10.6
		c0-0.3,0.3-0.6,0.4-0.8c0.2,0.3,0.4,0.6,0.5,0.9c0.1,0.4,0,0.9,0,1.4C144.8,50.8,145,50.8,145.1,50.9z"/>
</g>
</svg>
