<?xml version="1.0" encoding="utf-8"?>
<!-- Generator: Adobe Illustrator 24.2.0, SVG Export Plug-In . SVG Version: 6.00 Build 0)  -->
<svg version="1.1" id="Layer_1" xmlns="http://www.w3.org/2000/svg" xmlns:xlink="http://www.w3.org/1999/xlink" x="0px" y="0px"
	 viewBox="0 0 232 104" style="enable-background:new 0 0 232 104;" xml:space="preserve">
<style type="text/css">
	.st0{fill:#FFFFFF;stroke:#231F20;stroke-width:0.25;stroke-miterlimit:10;}
</style>
<g>
	<path class="st0" d="M-446-199.3h14.3c3.7,0,6.7,1,9,3c2.3,2,3.5,4.9,3.5,8.7c0,2.6-0.6,4.8-1.8,6.8c-1.2,2-2.9,3.5-5.1,4.6
		c-2.2,1.1-4.8,1.6-7.8,1.6h-7.4l-1.4,10c-0.3,2.2-2.2,3.9-4.4,3.9h-4.1L-446-199.3z M-433.5-181.5c1.8,0,3.3-0.6,4.5-1.7
		c1.2-1.1,1.8-2.6,1.8-4.3c0-1.4-0.5-2.6-1.4-3.4c-0.9-0.9-2.2-1.3-3.8-1.3h-6.6l-1.5,10.8H-433.5z"/>
	<path class="st0" d="M-415.4-161.9c-2.1-1.2-3.7-2.9-4.9-5c-1.1-2.1-1.7-4.5-1.7-7c0-2.2,0.4-4.2,1.1-6.1c0.8-1.9,1.8-3.6,3.2-5
		c1.4-1.5,3-2.6,4.8-3.4c1.8-0.8,3.8-1.2,6-1.2c2.9,0,5.3,0.6,7.3,1.7c2,1.1,3.5,2.7,4.5,4.6c1.1,2.1,1.6,4.6,1.5,7.4
		c0,0.2,0,0.4-0.1,0.6c-0.1,0.8-0.3,1.7-0.5,2.7h-19.9c0.1,1.9,0.7,3.3,1.8,4.3c1.1,1,2.5,1.5,4.4,1.5c1.4,0,2.7-0.3,3.7-0.9
		c1.1-0.6,1.9-1.4,2.5-2.3l2.4,1.2c2.3,1.2,2.6,4.3,0.5,5.8c-0.5,0.4-1.1,0.7-1.6,1.1c-2.2,1.2-4.8,1.8-7.7,1.8
		C-410.8-160-413.3-160.6-415.4-161.9z M-411.1-182c-1,0.9-1.8,2.1-2.3,3.6h11.8c0-1.5-0.5-2.7-1.5-3.6s-2.2-1.4-3.8-1.4
		C-408.6-183.4-410-182.9-411.1-182z"/>
	<path class="st0" d="M-386.6-161.6c-2.1-1.1-3.6-2.7-4.8-4.8c-1.1-2-1.7-4.4-1.7-7c0-2.5,0.4-4.7,1.3-6.7c0.9-2,2-3.7,3.5-5.1
		c1.5-1.4,3.2-2.5,5.1-3.3c1.9-0.8,4-1.1,6.1-1.1c1.7,0,3.2,0.3,4.6,0.8c1.4,0.5,2.5,1.2,3.5,2.1l1.8-13.3h4.9
		c1.6,0,2.8,1.4,2.6,2.9l-5.1,36.5h-6.2c-0.6,0-1.1-0.5-1-1.1l0.1-0.6c-1,0.8-2.2,1.3-3.5,1.7c-1.3,0.4-2.6,0.6-4,0.6
		C-382.1-159.8-384.5-160.4-386.6-161.6z M-374.1-168.2c1.2-0.8,2.1-1.8,2.8-3.1c0.7-1.3,1-2.8,1-4.4c0-2-0.6-3.6-1.8-4.9
		c-1.2-1.3-2.7-1.9-4.7-1.9c-1.6,0-3,0.4-4.2,1.1c-1.2,0.8-2.2,1.8-2.9,3.1c-0.7,1.3-1,2.8-1,4.4c0,2,0.6,3.7,1.8,5
		c1.2,1.3,2.8,1.9,4.8,1.9C-376.7-167-375.3-167.4-374.1-168.2z"/>
	<path class="st0" d="M-358.5-162.1c-1.7-1.3-2.6-3.2-2.6-5.8c0-1.9,0.5-3.5,1.4-4.8c1-1.3,2.3-2.3,3.9-3.1c1.6-0.8,3.5-1.4,5.6-1.7
		l8.4-1.3l0.1-0.7c0.2-1.2-0.2-2.1-1.1-2.8c-0.9-0.7-2-1-3.2-1c-1.5,0-2.8,0.4-4,1.2c-1.1,0.8-1.9,1.7-2.5,2.8
		c-0.1,0.1-0.2,0.2-0.4,0.1l-4.8-2.6c-0.6-0.3-0.7-1-0.4-1.6c1.1-1.9,2.7-3.4,4.7-4.5c2.4-1.3,5-2,7.9-2c2.4,0,4.5,0.5,6.4,1.4
		c1.9,0.9,3.3,2.1,4.3,3.7c1,1.6,1.3,3.4,1,5.6l-2.5,18.1c0,0.1-0.1,0.2-0.3,0.2h-6.8c-0.2,0-0.3-0.1-0.3-0.3l0.2-1.2
		c0-0.2-0.2-0.4-0.4-0.3c-1,0.8-2.1,1.3-3.3,1.7c-1.3,0.4-2.8,0.7-4.4,0.7C-354.5-160.1-356.8-160.8-358.5-162.1z M-352.1-166.3
		c0.6,0.4,1.4,0.6,2.4,0.6c1.9,0,3.5-0.6,4.8-1.9c1.3-1.3,2-2.8,2.3-4.5l0.1-0.7l-6.5,1.2c-1.1,0.2-2,0.6-2.8,1.1
		c-0.8,0.5-1.2,1.3-1.2,2.3C-353.1-167.3-352.7-166.7-352.1-166.3z"/>
	<path class="st0" d="M-328.8-199.9h4.6c1.7,0,3.1,1.5,2.8,3.3l-5.1,36.2h-7.9L-328.8-199.9z"/>
	<path class="st0" d="M-319.1-199.9h4.1c2,0,3.5,1.7,3.2,3.7l-5,35.8h-7.9L-319.1-199.9z"/>
	<path class="st0" d="M-306.3-161.8c-2.2-1.2-3.9-2.8-5.2-5c-1.3-2.1-1.9-4.5-1.9-7.2c0-2.2,0.4-4.2,1.2-6.1c0.8-1.9,2-3.6,3.5-5
		c1.5-1.4,3.2-2.5,5.1-3.3c1.9-0.8,4-1.2,6.2-1.2c2.7,0,5.1,0.6,7.3,1.8c2.2,1.2,3.9,2.8,5.2,4.9c1.3,2.1,1.9,4.5,1.9,7.2
		c0,2.2-0.4,4.2-1.2,6.1c-0.8,1.9-2,3.6-3.5,5c-1.5,1.4-3.2,2.6-5.1,3.4c-1.9,0.8-4,1.2-6.2,1.2C-301.6-160-304.1-160.6-306.3-161.8
		z M-294.7-168.2c1.2-0.8,2.1-1.8,2.8-3.1c0.7-1.3,1-2.8,1-4.4c0-2-0.6-3.7-1.7-4.9c-1.2-1.3-2.7-1.9-4.7-1.9
		c-1.6,0-2.9,0.4-4.1,1.2c-1.2,0.8-2.1,1.8-2.8,3.1c-0.7,1.3-1,2.8-1,4.4c0,2,0.6,3.7,1.7,4.9c1.2,1.3,2.7,1.9,4.7,1.9
		C-297.3-167-295.9-167.4-294.7-168.2z"/>
	<path class="st0" d="M-356.6-196.8c1.5-2.8,5.8-0.6,4.5,2.2c-1.6,3.5-4.1,5.2-5.4,4.5C-358.8-190.6-358.4-193.4-356.6-196.8z"/>
</g>
<g>
	<path class="st0" d="M-48.2-50.5c0,2.8-2.3,5-5,5c-2.8,0-5-2.3-5-5s2.3-5,5-5C-50.5-55.6-48.2-53.3-48.2-50.5z"/>
	<g>
		<path class="st0" d="M-206.7-60.7c0-1.9,0.4-3.7,1.1-5.5c0.7-1.7,1.8-3.3,3.1-4.6c1.3-1.3,2.8-2.3,4.5-3.1
			c1.7-0.8,3.6-1.1,5.5-1.1c1.9,0,3.8,0.4,5.5,1.1c1.7,0.8,3.2,1.8,4.5,3.1c1.3,1.3,2.3,2.8,3.1,4.6c0.8,1.7,1.1,3.6,1.1,5.5
			c0,2-0.4,3.8-1.1,5.5c-0.8,1.7-1.8,3.2-3.1,4.5c-1.3,1.3-2.8,2.3-4.5,3.1c-1.7,0.7-3.6,1.1-5.5,1.1c-2,0-3.8-0.4-5.5-1.1
			c-1.7-0.7-3.2-1.8-4.5-3.1c-1.3-1.3-2.3-2.8-3.1-4.5C-206.3-56.9-206.7-58.7-206.7-60.7z M-202.5-60.7c0,1.4,0.3,2.7,0.8,4
			c0.5,1.2,1.3,2.3,2.2,3.3c0.9,0.9,2,1.7,3.2,2.2c1.2,0.5,2.5,0.8,3.9,0.8c1.4,0,2.7-0.3,3.9-0.8c1.2-0.5,2.3-1.3,3.2-2.2
			c0.9-0.9,1.6-2,2.2-3.3c0.5-1.2,0.8-2.6,0.8-4c0-1.4-0.3-2.7-0.8-4c-0.5-1.2-1.3-2.3-2.2-3.3c-0.9-0.9-2-1.7-3.2-2.2
			c-1.2-0.5-2.5-0.8-3.9-0.8c-1.4,0-2.7,0.3-3.9,0.8c-1.2,0.5-2.3,1.3-3.2,2.2c-0.9,0.9-1.6,2-2.2,3.3
			C-202.2-63.4-202.5-62.1-202.5-60.7z"/>
		<path class="st0" d="M-173.3-46.8v-27.9h7.6c1.5,0,2.8,0.2,4,0.6c1.2,0.4,2.3,1,3.2,1.7c0.9,0.8,1.6,1.7,2.1,2.8
			c0.5,1.1,0.7,2.3,0.7,3.8c0,0.8-0.1,1.5-0.2,2.3c-0.2,0.8-0.4,1.5-0.8,2.2c-0.3,0.7-0.8,1.4-1.3,2c-0.5,0.6-1.2,1.1-2,1.5
			c1,1.6,2.1,3.4,3.3,5.4c1.2,2,2.4,3.9,3.7,5.8h-5c-0.5-0.8-1-1.6-1.6-2.5c-0.6-0.9-1.1-1.7-1.7-2.6c-0.6-0.9-1.1-1.7-1.6-2.5
			c-0.5-0.8-1-1.6-1.5-2.3h-0.8h-3.9v10H-173.3z M-169-60.7h3.8c1,0,1.9-0.2,2.6-0.5s1.2-0.8,1.6-1.3c0.4-0.5,0.7-1.1,0.8-1.7
			c0.2-0.6,0.3-1.1,0.3-1.6s-0.1-1-0.3-1.6c-0.2-0.6-0.5-1.1-0.9-1.6c-0.4-0.5-1-0.9-1.6-1.2c-0.7-0.3-1.5-0.5-2.5-0.5h-3.8V-60.7z"
			/>
		<path class="st0" d="M-151.5-60.7c0-1.9,0.4-3.7,1.1-5.5c0.7-1.7,1.8-3.3,3-4.6c1.3-1.3,2.8-2.3,4.5-3.1c1.7-0.8,3.6-1.1,5.5-1.1
			c1.9,0,3.8,0.4,5.5,1.1c1.7,0.8,3.2,1.8,4.6,3.1c1.3,1.3,2.3,2.8,3.1,4.6c0.8,1.7,1.1,3.6,1.1,5.5c0,2-0.3,3.8-1,5.5
			c-0.7,1.7-1.7,3.3-2.9,4.7l4.8-0.3v4c0,0-14.7,0.3-15.2,0.3c-2,0-3.8-0.4-5.5-1.1c-1.7-0.7-3.2-1.8-4.5-3.1
			c-1.3-1.3-2.3-2.8-3-4.5C-151.1-56.9-151.5-58.7-151.5-60.7z M-147.3-60.7c0,1.4,0.3,2.7,0.8,4c0.5,1.2,1.2,2.3,2.2,3.3
			c0.9,0.9,2,1.7,3.2,2.2c1.2,0.5,2.6,0.8,4,0.8c1.4,0,2.7-0.3,3.9-0.8c1.2-0.5,2.3-1.3,3.2-2.2c0.9-0.9,1.6-2,2.2-3.3
			c0.5-1.2,0.8-2.6,0.8-4c0-1.4-0.3-2.7-0.8-4c-0.5-1.2-1.3-2.3-2.2-3.3c-0.9-0.9-2-1.7-3.2-2.2c-1.2-0.5-2.5-0.8-3.9-0.8
			c-1.4,0-2.7,0.3-3.9,0.8c-1.2,0.5-2.3,1.3-3.2,2.2c-0.9,0.9-1.6,2-2.1,3.3C-147-63.4-147.3-62.1-147.3-60.7z"/>
		<path class="st0" d="M-119.9-60.7c0-1.9,0.4-3.7,1.1-5.5c0.7-1.7,1.8-3.3,3.1-4.6c1.3-1.3,2.8-2.3,4.5-3.1
			c1.7-0.8,3.6-1.1,5.5-1.1c1.9,0,3.8,0.4,5.5,1.1c1.7,0.8,3.2,1.8,4.5,3.1c1.3,1.3,2.3,2.8,3.1,4.6c0.8,1.7,1.1,3.6,1.1,5.5
			c0,2-0.4,3.8-1.1,5.5c-0.8,1.7-1.8,3.2-3.1,4.5c-1.3,1.3-2.8,2.3-4.5,3.1c-1.7,0.7-3.6,1.1-5.5,1.1c-2,0-3.8-0.4-5.5-1.1
			c-1.7-0.7-3.2-1.8-4.5-3.1c-1.3-1.3-2.3-2.8-3.1-4.5C-119.5-56.9-119.9-58.7-119.9-60.7z M-115.7-60.7c0,1.4,0.3,2.7,0.8,4
			c0.5,1.2,1.3,2.3,2.2,3.3c0.9,0.9,2,1.7,3.2,2.2c1.2,0.5,2.5,0.8,3.9,0.8c1.4,0,2.7-0.3,3.9-0.8c1.2-0.5,2.3-1.3,3.2-2.2
			c0.9-0.9,1.6-2,2.2-3.3c0.5-1.2,0.8-2.6,0.8-4c0-1.4-0.3-2.7-0.8-4c-0.5-1.2-1.3-2.3-2.2-3.3c-0.9-0.9-2-1.7-3.2-2.2
			c-1.2-0.5-2.5-0.8-3.9-0.8c-1.4,0-2.7,0.3-3.9,0.8c-1.2,0.5-2.3,1.3-3.2,2.2c-0.9,0.9-1.6,2-2.2,3.3
			C-115.4-63.4-115.7-62.1-115.7-60.7z"/>
		<path class="st0" d="M-62-74.7v29.2c-0.4-0.5-1.1-1.2-2.1-2.2c-1-1-2.2-2.2-3.5-3.5c-1.3-1.3-2.7-2.7-4.3-4.2
			c-1.5-1.5-2.9-2.9-4.3-4.2c-1.3-1.3-2.5-2.5-3.5-3.5c-1-1-1.7-1.8-2-2.2l-0.7-1l0.1,1.2v18.4h-4.2V-76c0.3,0.4,0.8,0.9,1.4,1.5
			c0.7,0.7,1.4,1.4,2.3,2.3c0.9,0.9,1.9,1.8,2.9,2.9c1.1,1,2.1,2.1,3.2,3.1c1.1,1.1,2.2,2.1,3.2,3.1c1.1,1,2,2,2.9,2.8
			c0.9,0.9,1.6,1.6,2.3,2.3c0.6,0.7,1.1,1.2,1.3,1.5l0.7,1.1l-0.1-1.3v-18H-62z"/>
	</g>
</g>
<g>
	<path class="st0" d="M-147.9-169.2c-1.4-2.5-2.8-5-4.2-7.4c-0.2-0.4-0.2-0.6,0.2-0.8c3.1-1.7,4.5-4.9,3.7-8.2
		c-0.8-3.2-3.6-5.3-7.1-5.3c-4.5,0-8.9,0-13.4,0c-0.2,0-0.6-0.2-0.8,0.2c0,7.4,0,14.8,0,22.2c0,0.4,0.2,0.5,0.5,0.5
		c1.1,0,2.1,0,3.2,0c0.5,0,0.7-0.1,0.7-0.7c0-2.6,0-5.3,0-7.9c0.1,0,0.1,0,0.1-0.1c2.2,0,4.3,0,6.5,0c1.3,0.2,2.1,1,2.6,2.1
		c0.9,1.8,1.9,3.5,2.9,5.2c0.4,0.7,0.8,1.2,1.7,1.3c1.2,0,2.4,0.1,3.7,0.1c0.6,0,0.3-0.3,0.1-0.5
		C-147.7-168.7-147.8-169-147.9-169.2z M-154.1-180.5c-0.6,0.3-1.2,0.1-1.8,0.1c-2.9,0-5.8,0-8.6,0c-0.6,0-0.8-0.2-0.7-0.8
		c0-1.8,0-3.6,0-5.4c0-0.6,0.2-0.8,0.8-0.7c1.6,0,3.1,0,4.7,0c1.5,0,3,0,4.5,0c1.9,0,3.3,1.2,3.6,2.9
		C-151.4-182.6-152.4-181.2-154.1-180.5z"/>
	<path class="st0" d="M-135.3-187.3c4.7,0,9.4,0,14.2,0c0.2,0,0.5,0.1,0.5-0.3c0-1,0-1.9,0-2.9c0-0.4-0.1-0.5-0.5-0.5
		c-5.6,0-11.2,0-16.7,0c-1.1,0-1.7,0.6-1.9,1.7c0,6.9,0,13.8,0,20.7c0,0.6,0.2,0.6,0.7,0.6c6,0,11.9,0,17.9,0c0.2,0,0.5,0.2,0.6-0.2
		c0-1.1,0-2.2,0-3.3c-0.1-0.3-0.3-0.2-0.5-0.2c-4.7,0-9.5,0-14.2,0c-0.1-0.1-0.1-0.1-0.2-0.2c0-1.4,0-2.8,0-4.3
		c0.3-0.7,0.8-1.2,1.5-1.5c3,0,6,0,9,0c0.5,0,0.6-0.1,0.6-0.6c0-0.8,0-1.6,0-2.5c0-0.5-0.2-0.6-0.6-0.6c-3.4,0-6.9,0-10.3,0
		c-0.1-0.1-0.1-0.1-0.2-0.2c0-1.9,0-3.9,0-5.8C-135.4-187.2-135.3-187.2-135.3-187.3z"/>
	<path class="st0" d="M-93.5-190.9c-5.5,0-11,0-16.6,0c-1.7,0-2.3,0.7-2.3,2.3c0,6.6,0,13.2,0,19.8c0,0.2-0.2,0.6,0.2,0.8
		c1.2,0,2.4,0,3.6,0c0.4,0,0.5-0.1,0.5-0.5c0-2.5,0-4.9,0-7.4c0.3-0.8,0.7-1.3,1.5-1.7c0.4,0,0.7,0,1.1,0c2.9,0,5.9,0,8.8,0
		c0.4-0.6,0.1-1.3,0.2-2c0-0.5,0.2-1.1-0.2-1.6c-3.8,0-7.5,0-11.3,0c0-0.1-0.1-0.1-0.1-0.2c0-1.9,0-3.9,0-5.8c0,0,0.1-0.1,0.1-0.1
		c1.5,0,3.1,0,4.6,0c3.4,0,6.8,0,10.1,0c0.5,0.2,0.5-0.1,0.5-0.4c0-0.8,0-1.6,0-2.4C-92.7-190.7-92.8-190.9-93.5-190.9z"/>
	<path class="st0" d="M-192-190.9c-5.5,0-11,0-16.6,0c-1.7,0-2.3,0.7-2.3,2.3c0,6.6,0,13.2,0,19.8c0,0.2-0.2,0.6,0.2,0.8
		c1.2,0,2.4,0,3.7,0c0.6,0,0.5-0.3,0.5-0.6c0-2.4,0-4.8,0-7.3c0.2-0.8,0.7-1.3,1.5-1.7c0.4,0,0.7,0,1.1,0c2.9,0,5.9,0,8.8,0
		c0.4-0.6,0.1-1.3,0.2-2c0-0.5,0.2-1.1-0.2-1.6c-3.8,0-7.5,0-11.3,0c0-0.1-0.1-0.1-0.1-0.2c0-1.9,0-3.9,0-5.8c0,0,0.1-0.1,0.1-0.1
		c3.7,0,7.5,0,11.2,0c1.3,0,2.5,0,3.8-0.1c0.3-0.9,0-1.9,0.1-2.8C-191.1-190.8-191.4-190.9-192-190.9z"/>
	<path class="st0" d="M-44-190.9c-1.2,0-2.5,0-3.7,0c-0.5,0-0.8,0.2-1.1,0.6c-2.1,2.9-4.2,5.7-6.2,8.6c-0.4,0.6-0.6,0.8-1.1,0
		c-2-2.9-4.2-5.8-6.3-8.6c-0.2-0.3-0.3-0.6-0.7-0.6c-1.6,0-3.3,0-5.1,0c1,1.4,2,2.7,2.9,4c2.4,3.2,4.7,6.5,7.1,9.7
		c0,0.3,0.1,0.6,0.1,0.9c0,2.5,0,5,0,7.5c0,0.7,0.2,0.9,0.9,0.8c0.7-0.1,1.4,0,2-0.1c0.8-0.1,1.2-0.6,1.4-1.4c0-2.6,0-5.1,0-7.7
		c3.3-4.5,6.6-9,9.9-13.6C-44-190.7-44-190.8-44-190.9z"/>
	<path class="st0" d="M-178.9-179.5c0-3.6,0-7.1,0-10.7c0-0.6-0.1-0.8-0.7-0.8c-0.6,0.1-1.1,0-1.7,0c-1.2,0-1.9,0.7-1.9,1.9
		c0,6.8,0,13.6,0,20.5c0,0.5,0.2,0.6,0.6,0.5c1,0,2,0,3,0c0.6,0,0.8-0.1,0.8-0.8C-178.9-172.3-178.9-175.9-178.9-179.5z"/>
	<path class="st0" d="M-66.7-170.8c0.1-0.7-0.2-0.8-0.8-0.8c-4.4,0-8.8,0-13.2,0c0-1.5,0-3,0-4.4c0-4.7,0-9.4,0-14
		c0-0.3,0.2-0.8-0.3-0.8c-1.3,0-2.7-0.2-4,0.1c0,0.1,0,0.2,0,0.2c0,6.9,0,13.7,0,20.6c0,0.3-0.1,0.6,0.2,0.8c0,0.6,0.4,0.9,0.9,0.9
		c0.3,0.3,0.7,0.2,1,0.2c5.1,0,10.2,0,15.4,0c0.6,0,0.9-0.1,0.9-0.8C-66.8-169.5-66.8-170.2-66.7-170.8z"/>
</g>
<g>
	<path class="st0" d="M59.4-176.5c-2.1,0-4.1,0-6.2,0c0-1.5,0-2.8,0-4.2c4.2,0,8.3,0,12.3,0c0.9,4.8-2,10.6-8.1,12.3
		c-6.1,1.7-12.3-1.9-13.9-8c-1.6-6.3,1.9-12.6,8-14.2c5.7-1.5,12.1,1.8,13.5,7.1c-1.9,0-3.8,0-5.7,0c-0.3,0-0.6-0.3-0.9-0.6
		c-2.1-1.8-4.7-2-6.9-0.7c-2.2,1.3-3.3,3.9-2.8,6.4c0.6,2.7,2.7,4.7,5.3,5C56.1-173.1,58.3-174.4,59.4-176.5z"/>
	<path class="st0" d="M185.2-168.4c-1.4,0-2.8,0.1-4.2,0c-0.3,0-0.7-0.4-0.9-0.8c-2.3-3.4-4.6-6.8-6.8-10.2c-0.2-0.4-0.5-0.7-1-1.3
		c0,0.7-0.1,1.1-0.1,1.4c0,3.3,0,6.6,0,9.9c0,0.8-0.2,1.1-1,1.1c-1.4-0.1-2.8,0-4.2,0c0-7.4,0-14.6,0-22c1.5,0,3,0,4.5,0
		c0.3,0,0.6,0.5,0.8,0.8c2.2,3.4,4.5,6.8,6.7,10.2c0.2,0.3,0.5,0.6,0.9,1.2c0-0.7,0.1-1.1,0.1-1.4c0-3.3,0-6.5,0-9.8
		c0-0.8,0.2-1.1,1-1.1c1.4,0.1,2.8,0,4.2,0C185.2-183.1,185.2-175.8,185.2-168.4z"/>
	<path class="st0" d="M95.4-168c-6.5,0-11.4-5-11.3-11.7c0-6.2,5.1-11.2,11.4-11.2c6.2,0,11.3,5.1,11.3,11.3
		C106.8-173.1,101.8-168,95.4-168z M101.3-179.7c0-3.3-2.6-5.9-5.8-5.9c-3.4,0-6,2.7-6,6c0.1,3.4,2.8,6.2,6,6.2
		C98.8-173.4,101.3-176.2,101.3-179.7z"/>
	<path class="st0" d="M154.2-168c-6.5,0-11.3-5.1-11.3-11.8c0.1-6.3,5.2-11.1,11.6-11.1c6.2,0,11.2,5.2,11.1,11.5
		C165.6-173,160.6-168,154.2-168z M154.4-185.5c-3.4,0-6.1,2.6-6,5.9c0,3.4,2.8,6.2,5.9,6.3c3.2,0,5.9-2.8,5.9-6.2
		C160.2-182.8,157.6-185.5,154.4-185.5z"/>
	<path class="st0" d="M78.1-176c1.8,2.5,3.5,4.9,5.3,7.5c-2.2,0-4.2,0-6.2,0c-0.3,0-0.6-0.5-0.8-0.8c-1.2-2-2.4-4-3.8-6
		c0,2.2,0,4.4,0,6.8c-1.7,0-3.3,0-4.9,0c-0.2,0-0.5-0.6-0.5-0.9c0-2.2,0-4.3,0-6.5c0-4.4,0-8.8,0-13.3c0-1,0.2-1.4,1.3-1.4
		c2.5,0.1,5,0,7.6,0.1c3.8,0.1,6.2,2.1,6.9,5.8c0.7,3.7-1,7-4.2,8.4C78.6-176.2,78.4-176.1,78.1-176z M72.6-180.2
		c1.3-0.2,2.5-0.2,3.6-0.5c1.1-0.3,1.5-1.2,1.5-2.4c0-1.1-0.4-2-1.5-2.3c-1.2-0.3-2.4-0.3-3.6-0.5C72.6-183.8,72.6-182.1,72.6-180.2
		z"/>
	<path class="st0" d="M119.2-190.5c1.7,0,3.2,0,4.7,0c0.2,0,0.6,0.4,0.6,0.7c0,5,0.1,10-0.2,15c-0.2,3.8-3.4,6.6-7.2,6.6
		c-1.4,0-3-0.1-4.3-0.6c-2.8-1-4.2-3.4-4.3-6.2c-0.2-4.9-0.1-9.8-0.1-14.7c0-0.3,0.4-0.7,0.6-0.8c1.5-0.1,3,0,4.6,0
		c0,0.5,0,0.9,0,1.3c0,4,0,8,0,12.1c0,0.7,0.1,1.3,0.2,2c0.3,1.4,1.1,2.1,2.4,2.1c1.5,0,2.4-0.6,2.7-2c0.2-0.7,0.2-1.4,0.2-2.2
		C119.2-181.6,119.2-185.9,119.2-190.5z"/>
	<path class="st0" d="M126.3-190.4c3.3,0,6.6-0.2,9.8,0c3.9,0.3,6.4,3.8,6,7.7c-0.5,4.5-3.1,6.9-7.6,7c-0.9,0-1.9,0-3,0
		c0,2-0.1,3.9,0,5.8c0.1,1.1-0.3,1.5-1.4,1.4c-1.3-0.1-2.5,0-3.9,0C126.3-175.8,126.3-183.1,126.3-190.4z M131.7-180.4
		c2.2,0.4,4-0.1,4.7-1.1c0.6-0.9,0.5-2.3-0.1-3.1c-0.7-0.9-2.9-1.4-4.6-0.9C131.7-183.8,131.7-182.1,131.7-180.4z"/>
</g>
<g>
	<path class="st0" d="M-444.4-36.3c-8.5-0.3-15.2-3.9-20-11c-2.1-3.2-3.4-6.7-3.8-10.5c-0.8-7.5,1.3-14.1,6.4-19.7
		c3.5-3.9,7.9-6.4,13.1-7.3c7.2-1.3,13.8,0.3,19.5,4.9c4.5,3.6,7.4,8.3,8.5,14c1.6,8.1-0.3,15.3-5.7,21.5c-3.7,4.2-8.4,6.7-13.9,7.7
		c-0.5,0.1-1.1,0.2-1.6,0.2c-0.7,0-1.5,0-2.2,0C-444.4-36.4-444.4-36.3-444.4-36.3z M-434.9-82.5c-1-0.3-2-0.2-3.1-0.1
		c-2.7,0.2-5.3,1-7.7,2.2c-4.3,2.1-7.6,5.1-9.9,9.3c-2,3.7-2.9,7.6-2.3,11.7c0.5,3.5,1.9,6.6,4.6,9c3.1,2.8,6.7,4,10.8,3.3
		c4.3-0.8,7.4-3.3,9.3-7.2c1.3-2.7,1.6-5.6,1-8.6c-0.4-2.1-1.3-4-2.8-5.6c-1.5-1.6-3.3-2.6-5.3-3.3c-0.7-0.2-1.4-0.4-2.1-0.7
		c-0.1-1.9,0.4-3.6,1.3-5.2C-439.8-80-437.7-81.7-434.9-82.5z"/>
	<path class="st0" d="M-363.3-69.1c0-2.3,0-4.5,0-6.8c1.5,0,2.9,0,4.4,0c0,8.3,0,16.5,0,24.7c-1.4,0-2.7,0-4,0
		c-0.1-0.4-0.1-0.8-0.2-1.3c-0.1,0.1-0.3,0.2-0.3,0.3c-1.1,1.1-2.5,1.5-4,1.4c-2.7-0.2-4.5-1.6-5.7-3.9c-1.1-2.1-1.4-4.3-1.2-6.6
		c0.1-1.5,0.5-3,1.3-4.3c1.2-2,3-3.3,5.3-3.8c1.3-0.2,2.6-0.1,3.9,0.2c0.1,0,0.3,0.1,0.5,0.1C-363.4-69.1-363.4-69.1-363.3-69.1z
		 M-363.3-65.2c-1.1-0.5-2.2-0.7-3.4-0.5c-1.3,0.3-2.2,1.1-2.8,2.3c-0.6,1.2-0.7,2.5-0.6,3.8c0.1,1.1,0.3,2.1,0.9,3.1
		c1.4,2.2,3.9,2.1,5.5,0.7c0.3-0.3,0.4-0.6,0.4-1c0-2.6,0-5.2,0-7.8C-363.3-64.8-363.3-65-363.3-65.2z"/>
	<path class="st0" d="M-272.8-59c-4,0-7.9,0-11.9,0c0.1,1.4,0.5,2.6,1.7,3.4c1.2,0.7,2.5,0.9,3.8,0.8c1.6-0.1,3.1-0.6,4.4-1.5
		c0.4,1.2,0.8,2.4,1.3,3.6c-0.5,0.2-0.9,0.5-1.4,0.7c-2.6,1-5.2,1.3-7.9,0.7c-3.8-0.7-5.9-3.6-6.4-6.7c-0.3-1.9-0.3-3.9,0.4-5.7
		c1.1-3.1,3.4-4.9,6.6-5.4c1.8-0.3,3.5-0.1,5.2,0.7c1.7,0.8,2.8,2.1,3.5,3.8c0.5,1.3,0.8,2.7,0.8,4.1C-272.8-60-272.8-59.5-272.8-59
		z M-277.6-62.2c-0.1-1.3-0.6-2.3-1.6-3c-1.2-0.8-2.5-0.6-3.7,0.1c-1.1,0.7-1.6,1.6-1.7,2.9C-282.3-62.2-280-62.2-277.6-62.2z"/>
	<path class="st0" d="M-307.9-68.9c1.3,0,2.6,0,4,0c0.1,0.4,0.2,0.9,0.2,1.3c0.2-0.1,0.3-0.2,0.4-0.3c1.3-1,2.8-1.5,4.5-1.5
		c1.5,0,3,0.3,4.2,1.3c1,0.8,1.5,1.9,1.8,3.1c0.3,1.1,0.4,2.2,0.4,3.3c0,3.4,0,6.9,0,10.3c0,0.1,0,0.2,0,0.4c-0.4,0.1-3.8,0.1-4.5,0
		c0-0.2,0-0.4,0-0.6c0-3.2,0-6.4,0-9.6c0-0.6-0.1-1.2-0.2-1.8c0-0.1,0-0.2-0.1-0.3c-0.7-2.5-2.9-2.8-4.5-2c-0.6,0.3-1.2,0.8-1.8,1.2
		c-0.2,0.2-0.2,0.4-0.2,0.6c0,1.4,0,2.8,0,4.3c0,2.5,0,5,0,7.5c0,0.2,0,0.4,0,0.6c-1.5,0-2.9,0-4.4,0c0,0,0,0,0,0c0,0,0,0,0,0
		c0-0.1,0-0.1,0-0.2c0-5.8,0-11.7,0-17.5C-307.9-68.7-307.9-68.8-307.9-68.9z"/>
	<path class="st0" d="M-318.9-50.9c-3.8,0-6.7-2-7.9-5.5c-1-2.7-0.9-5.4,0.2-8.1c1.1-2.6,3.1-4.3,5.9-4.7c2.7-0.4,5.1,0,7.2,1.9
		c1.2,1.1,2,2.4,2.5,4c0.8,2.5,0.7,5.1-0.4,7.5c-1.2,2.7-3.1,4.4-6.1,4.9c-0.1,0-0.2,0-0.4,0C-318.3-50.9-318.7-50.9-318.9-50.9z
		 M-315-60.2c0-1-0.1-2-0.5-2.9c-0.4-1-1-1.8-2-2.2c-1.8-0.8-3.8-0.1-4.8,1.7c-0.4,0.8-0.6,1.6-0.7,2.5c-0.1,1.5,0,2.9,0.7,4.2
		c0.4,0.8,1.1,1.5,2,1.8c1.7,0.6,3.5-0.1,4.4-1.7C-315.2-57.8-315-58.9-315-60.2z"/>
	<path class="st0" d="M-384.3-50.9c-2.7,0-4.9-1-6.5-3.2c-1-1.3-1.6-2.9-1.8-4.5c-0.3-2.4,0-4.7,1.2-6.8c1.4-2.4,3.4-3.7,6.2-3.9
		c1.5-0.1,3,0,4.4,0.6c1.9,0.9,3.3,2.3,4.1,4.3c1.3,3.3,1.2,6.5-0.5,9.6c-1.4,2.4-3.5,3.7-6.3,4c-0.2,0-0.4,0-0.6,0
		C-384.2-50.9-384.3-50.9-384.3-50.9z M-380.3-60.2c0-1.1-0.2-2.1-0.6-3c-0.8-1.9-2.8-2.9-4.7-2.1c-1.1,0.4-1.8,1.2-2.2,2.3
		c-0.3,0.8-0.5,1.6-0.5,2.5c-0.1,1.3,0.1,2.7,0.8,3.9c0.7,1.2,1.7,1.9,3.1,2c1.4,0,2.5-0.6,3.2-1.8
		C-380.5-57.7-380.3-58.9-380.3-60.2z"/>
	<path class="st0" d="M-340.6-51.3c-1.4,0-2.7,0-4,0c-0.1-0.4-0.1-0.8-0.2-1.2c-0.2,0.2-0.3,0.3-0.4,0.4c-2.3,2-6.6,1.8-8.6-1.1
		c-1.3-1.8-1.4-4.9,0.4-6.8c0.7-0.7,1.5-1.2,2.5-1.6c1.3-0.5,2.7-0.8,4.1-0.9c0.6-0.1,1.2-0.1,1.8-0.2c0.3-1.5-0.6-2.8-2.1-3
		c-1.4-0.2-2.7,0.2-3.9,0.9c-0.3,0.2-0.7,0.4-1.1,0.7c-0.5-1-1-2.1-1.4-3.1c0.5-0.5,1-0.8,1.6-1c1.5-0.7,3.1-1.1,4.7-1.2
		c1.3,0,2.6,0.1,3.7,0.7c1.7,0.9,2.6,2.4,2.9,4.2c0.1,0.7,0.1,1.4,0.1,2.1c0,3.5,0,7,0,10.5C-340.6-51.7-340.6-51.5-340.6-51.3z
		 M-345-59.6c-0.9,0.1-1.6,0.2-2.4,0.3c-0.6,0.1-1.3,0.3-1.9,0.6c-0.7,0.3-1.1,0.9-1.2,1.7c-0.2,1.2,0.4,2.1,1.5,2.3
		c1.4,0.3,2.7-0.2,3.8-1c0.2-0.1,0.2-0.3,0.2-0.5c0-0.6,0-1.3,0-1.9C-345-58.6-345-59.1-345-59.6z"/>
	<path class="st0" d="M-335.7-50.9c0-4.7,0-9.4,0-14.1c-0.8,0-1.5,0-2.2,0c0-1.3,0-2.4,0-3.7c0.7,0,1.4,0,2.2,0c0-0.3,0-0.5,0-0.7
		c0-0.9,0.1-1.8,0.3-2.7c0.6-2.3,2.3-3.7,4.6-3.9c1.7-0.1,3.2,0.1,4.5,0.7c-0.1,1.2-0.3,2.5-0.5,3.7c-0.7-0.1-1.3-0.3-1.9-0.4
		c-0.5-0.1-1,0-1.4,0.1c-0.7,0.3-1.1,0.8-1.2,1.5c-0.1,0.5-0.1,1.1-0.1,1.6c0.7,0.1,1.3,0,1.9,0c0.6,0,1.2,0,1.8,0
		c0,1.2,0,2.4,0,3.7c-1.2,0-2.4,0-3.6,0c0,0.3,0,0.5,0,0.7c0,4.2,0,8.5,0,12.7c0,0.2,0,0.4,0,0.7C-332.8-50.9-334.2-50.9-335.7-50.9
		z"/>
	<path class="st0" d="M-412.3-68c1.6,0,3.1,0,4.7,0c1.5,3.8,3,7.5,4.5,11.3c0,0,0.1,0,0.1,0c1.4-3.8,2.9-7.5,4.4-11.3
		c1.5,0,3,0,4.5,0c0,0.1-0.1,0.3-0.1,0.4c-2,4.8-3.9,9.6-5.9,14.3c-0.3,0.7-0.6,1.4-0.9,2.1c-0.1,0.2-0.2,0.3-0.5,0.3
		c-1,0-2.1,0-3.1,0c-0.3,0-0.4-0.1-0.6-0.4c-1.7-4-3.4-8-5.1-11.9c-0.6-1.4-1.2-2.9-1.8-4.3C-412.2-67.7-412.2-67.8-412.3-68z"/>
</g>
<g>
	<path class="st0" d="M69.4-44.6c-2.1,0.4-4.2,0.9-6.4,1.3c-0.2,0-0.4,0.1-0.6,0c-3.3-1.8-6.8-0.6-10.2-1c-0.6-0.1-1.4-0.6-1.5-1.1
		c-0.7-4.4-3.7-7.3-6.9-9.8c-2.1-1.6-2.4-3.6-2.4-5.9c0.1-11.9,10.4-21.7,22.1-21C76-81.3,85.1-71,83.9-58.9c-0.1,1.1-0.8,2.1-1.5,3
		c-0.6,0.9-1.5,1.6-2.4,2.3c-2.5,1.9-4.1,4.3-4.7,7.4c-0.3,1.6-1.2,2.1-2.8,1.9c-1-0.1-2.1,0-3.1,0C69.4-44.3,69.4-44.4,69.4-44.6z
		 M45.6-65.6c-0.7,4.1-1.3,7.6,2.4,10.2c2.4,1.7,4.4,4,4.8,7.1c0.2,1.1,1,1.5,2,1.3c3.5-0.5,6.9,0.7,10.5,0.1c2-0.4,4.2,0,6.3-0.1
		c0.7,0,1.7-0.7,1.8-1.2c0.6-3.4,3-5.5,5.4-7.7c2.6-2.4,3.1-5.6,1.5-9.2c-3.3,3.5-6.5,6.8-9.7,10.2c0-0.8,0.3-1.2,0.7-1.7
		c2.4-3.5,4.9-7,7.3-10.5c0.4-0.5,0.7-1.4,0.5-1.9c-0.6-1.3-1.5-2.4-2.5-3.9c-2.9,5.4-5.6,10.4-8.2,15.4c-0.3-0.6-0.1-1,0-1.4
		c1.8-4.6,3.5-9.2,5.4-13.7c0.7-1.7,0.5-2.7-1.2-3.4c-0.6-0.3-1.3-0.6-2.1-1c-1.8,6.9-3.6,13.5-5.3,20.1c-0.1-0.9,0-1.8,0.1-2.7
		c0.8-5.5,1.6-11,2.6-16.5c0.2-1.4-0.1-2.1-1.5-2.3c-0.6-0.1-1.3-0.2-2.1-0.4c-0.4,7.2-0.7,14.3-1.1,21.3
		c-0.6-6.5-0.9-13.1-1.2-19.6c0-1-0.1-2-1.6-1.7c-1.2,0.3-2.5,0.2-2.1,2.2c0.8,4.3,1.3,8.5,1.9,12.8c0.3,2,0.6,4,0.9,6
		c-0.1,0-0.2,0-0.4,0.1c-1.7-6.5-3.3-13-5-19.6c-0.7,0.3-1.2,0.4-1.5,0.6c-2.7,1.4-2.7,1.5-1.6,4.3c1.8,4.4,3.5,8.9,5.3,13.3
		c0.3,0.7,0.6,1.4,0.8,2.2c-0.1,0-0.2,0.1-0.3,0.1c-2.9-5.3-5.7-10.7-8.7-16.2c-0.7,1-1.2,1.7-1.7,2.3c-1.2,1.5-1.2,2.7,0.1,4.3
		c1.8,2.1,3.3,4.4,4.9,6.6c1,1.4,2,2.8,3,4.2c-0.1,0.1-0.2,0.1-0.3,0.2C52.2-58.6,49-61.9,45.6-65.6z"/>
	<path class="st0" d="M87.5-53.7c2.5,0,5.1,0,7.6,0c0.4,0,0.9,0.6,1.2,1.1c1.6,2.6,6.5,3.3,8.7,1.3c1-0.9,1.1-1.9,0-2.6
		c-1-0.6-2.3-0.8-3.5-1.2c-3.2-0.9-6.6-1.4-9.5-2.8c-6.6-3.2-5-11-0.2-13.8c5.5-3.2,11.2-3.1,16.7-0.3c2.2,1.1,3.6,3.2,4.4,5.6
		c0.2,0.6,0.2,1.2,0.4,2.2c-2.8,0-5.3,0-7.8-0.1c-0.4,0-0.9-0.7-1.1-1.1c-1.4-2.3-4.3-3.1-6.7-1.9c-1.5,0.8-1.7,2.4-0.2,3.3
		c0.9,0.6,2,0.9,3.1,1.1c2.2,0.5,4.5,0.9,6.7,1.5c4.4,1.1,6.8,3.7,7.1,7.4c0.3,3.7-2.2,7.6-6.1,8.9c-4.8,1.6-9.7,1.7-14.5,0
		C89.8-46.4,87.5-49.8,87.5-53.7z"/>
	<path class="st0" d="M117.4-72.9c2.7,0,5.3,0,8.2,0c0,3.2,0,6.4,0,9.9c0.9-0.5,1.3-0.7,1.8-1c2.6-1.5,5.4-1.9,8.4-1.2
		c3,0.8,5.2,2.7,5.4,5.8c0.3,4.9,0.1,9.8,0.1,14.8c-2.7,0-5.4,0-8.3,0c0-3.8,0-7.5,0-11.3c0-2-1.1-3.2-2.9-3.7
		c-1.8-0.5-3.2,0.2-4,1.7c-0.4,0.7-0.6,1.7-0.6,2.6c-0.1,3.5,0,6.9,0,10.6c-2.7,0-5.3,0-8.1,0C117.4-53.9,117.4-63.3,117.4-72.9z"/>
	<path class="st0" d="M152.5-52.6c-0.1,2.1,0.9,3.2,2.3,4c1.6,0.9,3.5,1,4.8-0.3c1.4-1.6,3-1.5,4.8-1.5c1.4,0,2.7,0,4.7,0
		c-0.8,1.3-1.3,2.3-2,3.1c-4.8,5.2-15.3,5.2-20.1-0.1c-4.9-5.3-3.1-13.8,3.6-16.7c4-1.8,8.2-1.7,12.2,0c4,1.7,6.6,5.8,6.4,10.2
		c0,1.2-0.6,1.4-1.6,1.4c-4.3,0-8.6,0-13,0C154-52.6,153.3-52.6,152.5-52.6z M152.4-56.8c2.9,0,5.7,0,8.4,0c-0.2-2.3-1.6-3.8-3.6-4
		C155-61,153.1-59.5,152.4-56.8z"/>
	<path class="st0" d="M193.6-44.4c-2.5,0-4.9,0-7.3,0c-1.4,0-1.1-1-1.1-1.8c0-7.6,0-15.2,0-22.7c0-1.2,0-2.5,0-3.8
		c2.9,0,5.6,0,8.5,0C193.6-63.4,193.6-54,193.6-44.4z"/>
	<path class="st0" d="M180.6-73c0,9.6,0,19,0,28.6c-2.5,0-4.9,0.1-7.3-0.1c-0.4,0-1-0.8-1-1.2c-0.1-8.6-0.1-17.3,0-25.9
		c0-0.4,0.7-1.2,1.2-1.3C175.7-73,178-73,180.6-73z"/>
</g>
<g>
	<path class="st0" d="M-302.9,27.3C-302.9,27.2-302.9,27.2-302.9,27.3c-1,0.1-2,0.2-3.1,0.3c-5.6,0.9-11.3,1.8-16.9,2.7
		c-2.2,0.4-4.5,0.6-6.7,1.2c-3.1,0.8-4.8,3.5-4.4,6.7c0.3,2,0.6,4.1,0.9,6.1c0.2,1,0.2,1.1,1.2,0.9c1.5-0.2,3.1-0.5,4.6-0.7
		c4-0.6,8.1-1.3,12.1-1.9c3-0.5,6-0.9,9-1.4c1.9-0.3,3.9-0.6,5.8-0.9c0.5-0.1,0.8-0.3,0.6-0.9c-0.1-0.5-0.2-1-0.3-1.6
		c-0.5-3.2-1-6.4-1.5-9.6c-0.1-0.7-0.3-1.1-1.1-0.9C-302.7,27.3-302.8,27.3-302.9,27.3z M-293.8,70.1c0-9,0-17.9,0-26.8
		c-1.2,0-2.3,0-3.5,0c0,9,0,17.9,0,26.8C-296.2,70.1-295,70.1-293.8,70.1z"/>
	<path class="st0" d="M-302.9,27.3c0.1,0,0.2,0,0.3,0c0.8-0.2,1,0.2,1.1,0.9c0.5,3.2,1,6.4,1.5,9.6c0.1,0.5,0.1,1.1,0.3,1.6
		c0.2,0.6-0.1,0.8-0.6,0.9c-1.9,0.3-3.9,0.6-5.8,0.9c-3,0.5-6,0.9-9,1.4c-4,0.6-8.1,1.3-12.1,1.9c-1.5,0.2-3.1,0.5-4.6,0.7
		c-1,0.2-1.1,0.1-1.2-0.9c-0.3-2-0.6-4.1-0.9-6.1c-0.4-3.2,1.3-5.9,4.4-6.7c2.2-0.6,4.5-0.8,6.7-1.2c5.6-0.9,11.3-1.8,16.9-2.7
		C-305,27.4-304,27.3-302.9,27.3C-302.9,27.2-302.9,27.2-302.9,27.3z M-314.5,32.5c0,0.5,0,0.8,0.1,1.1c0.3,1.7,0.6,3.3,0.8,5
		c0.1,0.6,0.3,0.6,0.8,0.6c0.5-0.1,0.7-0.3,0.6-0.8c-0.2-1.1-0.4-2.2-0.5-3.3c-0.1-1.1,0.5-1.8,1.5-1.8c0.8,0,1.2,0.4,1.3,1.1
		c0.2,1.2,0.4,2.4,0.6,3.6c0.1,0.6,0.5,0.5,0.9,0.5c0.5-0.1,0.5-0.3,0.4-0.7c-0.2-1.2-0.4-2.5-0.5-3.7c-0.1-0.8,0.5-1.4,1.3-1.4
		c0.8-0.1,1.4,0.4,1.6,1.4c0.2,0.9,0.3,1.9,0.5,2.8c0.2,1.2,0.3,1.3,1.6,0.7c-0.3-1.5-0.5-3.1-0.9-4.7c-0.3-1.1-1.3-1.6-2.5-1.6
		c-1,0.1-1.8,0.4-2.4,1.3c-1.6-0.9-2.5-0.8-3.6,0.1C-313.6,32.6-314,32.6-314.5,32.5z M-318.4,33.2c-2,0-3.7,1.5-3.7,3.5
		c0,1.9,1.6,3.5,3.5,3.6c2,0,3.6-1.6,3.6-3.5C-314.8,34.7-316.3,33.2-318.4,33.2z M-322.9,36.3c-0.5-1.4-2.3-2.2-3.8-1.8
		c-1.8,0.5-2.8,2.2-2.5,4.2c0.3,1.7,2,2.9,3.6,2.7c1.7-0.2,3.1-1.5,3-2.9c-0.6,0-1.2-0.1-1.5,0.6c-0.5,0.9-1.4,1.2-2.3,1
		c-1-0.3-1.6-1.2-1.5-2.4c0-1,0.7-1.8,1.6-1.9c0.5,0,1.2,0.1,1.6,0.4C-324.1,36.7-323.6,36.5-322.9,36.3z M-330.3,42.3
		c0.5,0,1-0.5,1-1c0-0.6-0.4-1-1-1c-0.6,0-1.1,0.5-1,1.1C-331.3,41.9-330.8,42.3-330.3,42.3z"/>
	<path class="st0" d="M-347.9,52.4c0-3.1,0-6.1,0-9.1c1.3,0,2.5,0,3.8,0c0,8.9,0,17.9,0,26.8c-1.1,0-2.2,0-3.4,0c0-0.9,0-1.7,0-2.6
		c0,0-0.1-0.1-0.1-0.1c-2.1,2.6-4.9,3.5-8.1,3.2c-3.2-0.3-5.8-1.7-7.7-4.3c-3.1-4.4-2.2-10.9,1.8-14.4
		C-358.1,48.8-351.6,48.3-347.9,52.4z M-361.5,60.1c0,3.9,3.1,7.1,6.8,7.1c3.9,0,7-3.1,7-7c0-4.1-3-7.2-7-7.2
		C-358.5,52.9-361.5,56-361.5,60.1z"/>
	<path class="st0" d="M-388.2,61.7c-5.5,0-11,0-16.5,0c0.3,2.7,3.1,5.3,6,5.4c2,0.1,3.7-0.5,5.1-1.8c0.2-0.2,0.5-0.3,0.7-0.3
		c1.2,0,2.4,0,3.6,0c-0.7,3.5-6.5,6.3-10.9,5.4c-5.6-1.1-9.3-6.9-8.1-12.8c1.2-5.7,6.6-9.2,12.3-8
		C-390.9,50.8-387.3,55.9-388.2,61.7z M-391.9,58.7c-0.1-3.3-3.5-6.1-6.9-5.8c-3.2,0.3-6.3,3.2-5.9,5.8
		C-400.5,58.7-396.2,58.7-391.9,58.7z"/>
	<path class="st0" d="M-311.3,49.4c6,0,10.9,4.7,10.9,10.5c0,5.9-4.8,10.6-10.8,10.7c-6,0-10.9-4.7-10.9-10.7
		C-322.2,54.1-317.3,49.5-311.3,49.4z M-311.3,67.1c3.9,0,7.1-3.2,7.1-7.2c0-3.9-3.2-7-7.1-7c-3.9,0-7.1,3.2-7.1,7.1
		C-318.4,64-315.2,67.2-311.3,67.1z"/>
	<path class="st0" d="M-382.1,50c0,0.7,0,1.3,0,2c0.2-0.1,0.3-0.2,0.4-0.3c2.5-2.6,5.6-2.8,8.8-1.7c3.1,1,4.9,3.4,5.1,6.6
		c0.2,4.4,0.1,8.8,0.1,13.2c0,0.1,0,0.1-0.1,0.3c-1.2,0-2.4,0-3.7,0c0-0.3,0-0.6,0-0.8c0-3.5,0.1-6.9,0-10.4c0-1.2-0.3-2.3-0.6-3.4
		c-0.4-1.2-1.4-2-2.7-2.3c-3.8-1-6.9,1.4-6.9,5.7c0,3.5,0,6.9,0,10.4c0,0.3,0,0.6,0,0.9c-1.3,0-2.5,0-3.7,0c0-6.7,0-13.4,0-20.1
		C-384.4,50-383.3,50-382.1,50z"/>
	<path class="st0" d="M-332.2,65.5c1.4-3.6,2.7-6.9,4-10.3c0.6-1.6,1.2-3.1,1.8-4.7c0.2-0.4,0.4-0.6,0.8-0.6c1.1,0,2.2,0,3.5,0
		c-0.1,0.3-0.2,0.6-0.3,0.8c-3.5,8.5-7,16.9-10.5,25.4c-0.2,0.6-0.5,0.7-1.1,0.7c-1,0-2,0-3.1,0c0.1-0.3,0.2-0.5,0.3-0.7
		c0.8-1.9,1.6-3.8,2.4-5.8c0.1-0.3,0.1-0.8,0-1.2c-2.5-6.1-4.9-12.2-7.4-18.2c-0.1-0.3-0.2-0.6-0.3-0.9c1.3,0,2.5,0,3.7,0
		c0.2,0,0.5,0.4,0.6,0.6c1.8,4.6,3.5,9.2,5.2,13.8C-332.5,64.7-332.4,65-332.2,65.5z"/>
	<path class="st0" d="M-437.4,53.6c-1.1,0-2,0-3.1,0c0-1.2,0-2.3,0-3.5c1,0,2.1,0,3.2,0c0-2.2,0-4.3,0-6.4c1.3,0,2.5,0,3.8,0
		c0,2.1,0,4.2,0,6.4c2.1,0,4.2,0,6.3,0c0,1.2,0,2.3,0,3.5c-2.1,0-4.1,0-6.2,0c0,0.3-0.1,0.4-0.1,0.6c0,3.1,0,6.3,0,9.4
		c0,0.4,0.1,0.8,0.1,1.1c0.3,1.4,1.2,2.2,2.6,2.1c1.2-0.1,2.4-0.5,3.6-0.8c0.3-0.1,0.6-0.3,1.1-0.5c0,1.2,0,2.3,0,3.4
		c0,0.1-0.2,0.3-0.3,0.4c-2.5,1.2-5,1.6-7.6,0.5c-1.9-0.8-3.1-2.3-3.1-4.3c-0.1-3.2-0.1-6.5-0.2-9.7
		C-437.4,55-437.4,54.3-437.4,53.6z"/>
	<path class="st0" d="M-410.4,55.2c-0.7-0.5-1.3-1-1.9-1.3c-1.8-1-3.6-0.6-4.9,0.9c-1.2,1.3-1.8,2.9-1.8,4.7c0,3.2,0,6.4,0,9.6
		c0,0.3,0,0.5,0,0.9c-1.3,0-2.6,0-3.9,0c0-6.6,0-13.2,0-19.9c1.3,0,2.5,0,3.9,0c0,0.8,0,1.5,0,2.5c0.2-0.2,0.3-0.3,0.3-0.4
		c2.3-3.5,7.1-3.1,10-0.5c0.1,0.1,0.2,0.4,0.1,0.6C-409.1,53.2-409.8,54.2-410.4,55.2z"/>
	<path class="st0" d="M-293.8,70.1c-1.2,0-2.3,0-3.5,0c0-9,0-17.9,0-26.8c1.2,0,2.3,0,3.5,0C-293.8,52.2-293.8,61.1-293.8,70.1z"/>
	<path class="st0" d="M-316.2,36.7c0,1.2-1.1,2.3-2.3,2.2c-1.2,0-2.2-1.1-2.2-2.3c0-1.2,1-2.2,2.2-2.2
		C-317.2,34.4-316.2,35.5-316.2,36.7z"/>
</g>
</svg>
